<svg xmlns="http://www.w3.org/2000/svg" width="2080px" height="1475px" viewBox="0 0 2080 1475" xmlns:xlink="http://www.w3.org/1999/xlink" style="display: block; width: 2080px; height: 1475px; overflow: auto;"><rect width="2080px" height="1475px" fill="white"/><clipPath id="ygc600_1"><rect x="25" y="25" width="2029.12" height="1424.3"/></clipPath><g clip-path="url(#ygc600_1)"><g transform="translate(1144.125 644.2960185382993)" image-rendering="auto" shape-rendering="auto" style="pointer-events: visiblepainted;"><g style="box-sizing: initial;"><g><path fill="none" stroke="#000000" d="M -1032.625,197.27838776748925 L -1012.3298688580669,180.30041988492098 L -910.6424129804535,97.67171681740892 L -807.4920322283047,17.070289906955928 L -702.8787265021739,-61.50386091820068 L -596.8024957026148,-138.0507357298236 L -489.26333973018086,-212.57033459967556 L -380.26125848542574,-285.0626575995192 L -269.79625186890286,-355.52770480111724 L -221.31534963359465,-385.48853315991687" stroke-width="1" stroke-linecap="butt" stroke-linejoin="miter" stroke-miterlimit="10"/><use transform="matrix(-0.8506666355861913 0.525705502254323 -0.525705502254323 -0.8506666355861913 -216.21134982007752 -388.6427661734428)" xlink:href="#ygc600_0"/></g><g><path fill="none" stroke="#000000" d="M -85,-398.15972096657987 L -48.75000029135744,-402.1874980957031 L 18.749999444091777,-407.1874973144531 L 86.24999919711911,-409.68749692382806 L 153.7499990310058,-409.68749692382806 L 221.2499990090332,-407.1874973144531 L 288.74999919448237,-402.1874980957031 L 317.62140651871346,-398.97956447148465" stroke-width="1" stroke-linecap="butt" stroke-linejoin="miter" stroke-miterlimit="10"/><use transform="matrix(-0.9938837366493602 -0.11043150829317218 0.11043150829317218 -0.9938837366493602 323.5847089386096 -398.3169754217256)" xlink:href="#ygc600_0"/></g><g><path fill="none" stroke="#000000" d="M -136.30765262863358,-340 L -129.16215200711707,-308.5968129771678 L -122.98797482404065,-276.03553830128544 L -118.04863307757951,-243.47426369009884 L -114.34412676773366,-210.91298913597655 L -111.87445589450309,-178.35171463128702 L -110.6396204578878,-145.79044016839867 L -110.6396204578878,-113.22916573967994 L -111.87445589450309,-80.66789133749931 L -114.34412676773366,-48.10661695422523 L -118.04863307757951,-15.54534258222613 L -122.98797482404065,17.015931786129528 L -129.16215200711707,49.57720615847329 L -136.57116462680878,82.13848054243672 L -145.2150126831158,114.69975494565135 L -147.6184366247821,122.87726319545132" stroke-width="1" stroke-linecap="butt" stroke-linejoin="miter" stroke-miterlimit="10"/><use transform="matrix(0.28197998899294807 -0.9594202863227027 0.9594202863227027 0.28197998899294807 -149.31031655873977 128.63378491338753)" xlink:href="#ygc600_0"/></g><g><path fill="none" stroke="#000000" d="M -1059.8364815816267,252.375 L -1035.1148042712016,260.95453947557405 L -980.2862460129211,277.7693426449191 L -925.7134653433693,291.5444662763645 L -871.3964622501155,302.2799103688643 L -817.335236720729,309.9756749213725 L -776.9571715924992,313.75270863700484 L -750.1183919892467,315.3208312573009 L -723.3435567699686,316.1290339920106 L -696.6326659331112,316.1773168410034 L -669.9857194771207,315.46567980414824 L -643.402717400443,313.99412288131464 L -616.8836597015243,311.7626460723717 L -590.4285463788109,308.7712493771888 L -564.0373774307488,305.0199327956351 L -537.7101528557844,300.50869632757986 L -511.4468726523636,295.2375399728923 L -485.24753681893253,289.2064637314417 L -446.06842875911786,278.7349995812991 L -394.0534232931601,262.11332777621794 L -342.29419527919225,242.45197642173122 L -290.7907447047836,219.75094551679274 L -239.5430715575032,194.0102350603566 L -221.50826745876316,184.11237247415139" stroke-width="1" stroke-linecap="butt" stroke-linejoin="miter" stroke-miterlimit="10"/><use transform="matrix(-0.8766523318345381 0.4811244008456307 -0.4811244008456307 -0.8766523318345381 -216.24835346775595 181.2256260690776)" xlink:href="#ygc600_0"/></g><g><path fill="none" stroke="#000000" d="M -1037.25,-229.47482923207662 L -991.3065836666706,-250.8849211185485 L -940.2124267892239,-272.7098991350316 L -888.7460997730135,-292.7229016378037 L -836.9076026055413,-310.9239286294319 L -784.6969352743085,-327.3129801124835 L -732.1140977668165,-341.8900560895254 L -679.159090070567,-354.6551565631248 L -625.8319121730611,-365.6082815358491 L -572.1325640618004,-374.74943101026497 L -518.0610457242865,-382.0786049889399 L -463.6173571480206,-387.595803474441 L -408.80149832050427,-391.30102646933517 L -353.61346922923883,-393.19427397618983 L -298.05326986172577,-393.27554599757207 L -242.12090020546668,-391.5448425360489 L -222.41281131129222,-390.4615803762885" stroke-width="1" stroke-linecap="butt" stroke-linejoin="miter" stroke-miterlimit="10"/><use transform="matrix(-0.9984928189673269 -0.05488251516358471 0.05488251516358471 -0.9984928189673269 -216.42185439748826 -390.132285285307)" xlink:href="#ygc600_0"/></g><g><path fill="none" stroke="#000000" d="M -85,152.32619775311608 L -80.75560574967953,150.45722717460222 L -36.73283655261805,128.54375350182676 L 5.577804411150237,104.85564638880628 L 46.17631714953547,79.39290582790927 L 85.06270167044782,52.155531811504154 L 122.2369579817974,23.14352433195939 L 157.69908609149442,-7.643116618356574 L 191.44908600744904,-40.20439104707529 L 223.48695773757132,-74.54029896182831 L 253.81270128977152,-110.65084037024718 L 282.42631667195985,-148.5360152799634 L 309.3278038920462,-188.19582369860865 L 334.5171629579411,-229.6302656338143 L 357.99439387755433,-272.83934109321206 L 379.75949665879637,-317.82305008443336 L 386.5639353116574,-333.2102540376956" stroke-width="1" stroke-linecap="butt" stroke-linejoin="miter" stroke-miterlimit="10"/><use transform="matrix(-0.40443442805668145 0.9145669977658635 -0.9145669977658635 -0.40443442805668145 388.99054187999747 -338.6976560242908)" xlink:href="#ygc600_0"/></g><g><path fill="none" stroke="#000000" d="M -1066.7724039039347,-184.75 L -1058.8041904758652,-168.6041932215179 L -1041.4472395363232,-135.46273475071342 L -1023.4698460737827,-103.76879488885413 L -1004.8720100866822,-73.52237363527033 L -985.6537315734586,-44.72347098929241 L -965.8150105325501,-17.37208695025071 L -945.355846962394,8.53177848252441 L -924.2762408614283,32.98812530970261 L -902.5761922280908,55.99695353195353 L -880.2557010608186,77.55826314994681 L -857.3147673580498,97.67205416435212 L -833.7533911182219,116.33832657583909 L -809.5715723397728,133.5570803850774 L -784.7693110211401,149.3283155927367 L -759.3466071607613,163.65203219948657 L -733.3034607570743,176.52823020599675 L -706.6398718085167,187.95690961293678 L -679.355840313526,197.93807042097643 L -651.4513662705403,206.4717126307853 L -622.9264496779969,213.55783624303302 L -593.7810905343337,219.19644125838926 L -564.0152888379881,223.38752767752365 L -533.6290445873982,226.13109550110585 L -502.62235778100126,227.42714472980555 L -470.99522841723535,227.27567536429234 L -438.7476564945378,225.67668740523584 L -405.8796420113465,222.6301808533058 L -372.3911849660991,218.1361557091718 L -338.28228535723326,212.19461197350347 L -303.55294318318664,204.80554964697055 L -268.20315844239695,195.96896873024264 L -232.2329311333018,185.68486922398938 L -222.086966068739,182.51881464696837" stroke-width="1" stroke-linecap="butt" stroke-linejoin="miter" stroke-miterlimit="10"/><use transform="matrix(-0.9546020302879472 0.29788414487872505 -0.29788414487872505 -0.9546020302879472 -216.3593538870113 180.731509777696)" xlink:href="#ygc600_0"/></g><g><path fill="none" stroke="#000000" d="M -187.67175726444185,230 L -191.74100017969417,235.3009762931111 L -219.6994365510879,269.2549250685422 L -247.76275525910472,300.87817884141634 L -275.9309563054687,330.170737611811 L -304.20403969190437,357.1326013798037 L -332.58200542013566,381.7637701454721 L -361.064853491887,404.0642439088938 L -389.6525839088824,424.0340226701463 L -418.34519667284627,441.6731064293072 L -447.1426917855027,456.98149518645425 L -476.04506924857594,469.9591889416649 L -505.0523290637904,480.6061876950168 L -534.1644712328703,488.9224914465875 L -563.3814957575395,494.90810019645454 L -592.7034026395224,498.5630139446957 L -622.1301918805434,499.88723269138836 L -651.6618634823267,498.88075643661034 L -681.2984174465962,495.54358518043887 L -711.0398537750766,489.8757189229519 L -740.8861724694917,481.87715766422684 L -770.8373735315661,471.5479014043413 L -800.8934569630237,458.88795014337296 L -831.0544227655889,443.8973038813993 L -861.3202709409859,426.575962618498 L -891.691001490939,406.9239263547466 L -922.1666144171722,384.94119509022266 L -952.7471097214101,360.6277688250038 L -983.4324874053766,333.9836475591677 L -1014.222747470796,305.0088312927918 L -1045.1178899193926,273.70332002595376 L -1059.7433628897372,257.834125461483" stroke-width="1" stroke-linecap="butt" stroke-linejoin="miter" stroke-miterlimit="10"/><use transform="matrix(0.6777040957544777 0.7353347255485803 -0.7353347255485803 0.6777040957544777 -1063.809587464264 253.4221171081915)" xlink:href="#ygc600_0"/></g><g><path fill="none" stroke="#000000" d="M -215,176.3992990226346 L -249.30185731385686,173.91883913514965 L -313.97324834247473,166.3099443801724 L -361.6736218536649,158.73700986616305 L -393.0914090736678,152.79968997557467 L -424.20322686566453,146.151412579144 L -455.0090752313344,138.7921776761482 L -485.5089541723572,130.72198526586453 L -515.7028636904124,121.94083534757006 L -545.5908037871793,112.44872792054204 L -575.1727744643377,102.24566298405769 L -604.448775723567,91.33164053739418 L -633.418807566547,79.7066605798287 L -662.0828699949567,67.37072311063841 L -690.440963010476,54.32382812910056 L -718.4930866147845,40.5659756344923 L -746.2392408095618,26.09716562609082 L -773.6794255964869,10.917398103173333 L -800.8136409772397,-4.97332693498298 L -827.6418869534998,-21.57500948910093 L -854.1641635269468,-38.88764955990332 L -880.3804706992601,-56.91124714811296 L -906.2908084721189,-75.64580225445266 L -944.582622511105,-105.08068026203726 L -994.5674816806722,-146.81553559235147 L -1031.7707178775092,-180.82779925856846" stroke-width="1" stroke-linecap="butt" stroke-linejoin="miter" stroke-miterlimit="10"/><use transform="matrix(0.7380497928051759 0.6747462510753484 -0.6747462510753484 0.7380497928051759 -1036.1990166343403 -184.87627676502055)" xlink:href="#ygc600_0"/></g><g><path fill="none" stroke="#000000" d="M -156.20065749160267,130 L -162.18749919257814,73.12500020852049 L -167.18749886132812,1.8750004471435489 L -169.6874986957031,-69.37499931247558 L -169.6874986957031,-140.62499913713378 L -167.18749886132812,-211.87499909362793 L -162.18749919257814,-283.1249992487549 L -156.97783729034975,-332.6167908908837" stroke-width="1" stroke-linecap="butt" stroke-linejoin="miter" stroke-miterlimit="10"/><use transform="matrix(-0.1046847770475439 0.9945054537077743 -0.9945054537077743 -0.1046847770475439 -156.34972862806447 -338.58382361313033)" xlink:href="#ygc600_0"/></g><g><path fill="none" stroke="#000000" d="M 455,-399.60416543732026 L 474.3749974034912,-402.1874980957031 L 530.6249962174072,-407.1874973144531 L 586.8749955287842,-409.68749692382806 L 643.1249953903564,-409.68749692382806 L 699.3749958548584,-407.1874973144531 L 755.6249969750244,-402.1874980957031 L 767.6411234223254,-400.585348205148" stroke-width="1" stroke-linecap="butt" stroke-linejoin="miter" stroke-miterlimit="10"/><use transform="matrix(-0.991227903950792 -0.13216369557983632 0.13216369557983632 -0.991227903950792 773.5884908460303 -399.792366031669)" xlink:href="#ygc600_0"/></g><g><path fill="none" stroke="#000000" d="M 775,-378.9584753860783 L 767.6278377683067,-377.8124983394531 L 719.3797305228319,-372.81249765820314 L 671.1316239517754,-370.3124973175781 L 622.883518009905,-370.3124973175781 L 574.6354126519877,-372.81249765820314 L 526.3873078327913,-377.8124983394531 L 478.1392035070828,-385.31249936132815 L 462.28769926195804,-388.3925763027053" stroke-width="1" stroke-linecap="butt" stroke-linejoin="miter" stroke-miterlimit="10"/><use transform="matrix(0.9816404430494114 0.19074076798040587 -0.19074076798040587 0.9816404430494114 456.3978566036616 -389.5370209105878)" xlink:href="#ygc600_0"/></g><g><path fill="none" stroke="#000000" d="M 325,-380.86896072596545 L 300.7528399877647,-377.8124983394531 L 241.25473367700658,-372.81249765820314 L 181.75662759242476,-370.3124973175781 L 122.25852167823983,-370.3124973175781 L 62.76041587867229,-372.81249765820314 L 3.2623101379426034,-377.8124983394531 L -56.23579559972866,-385.31249936132815 L -77.66647843868753,-388.6892905446549" stroke-width="1" stroke-linecap="butt" stroke-linejoin="miter" stroke-miterlimit="10"/><use transform="matrix(0.9878126272495249 0.15564772226534837 -0.15564772226534837 0.9878126272495249 -83.59335420218468 -389.62317687824697)" xlink:href="#ygc600_0"/></g><g><path fill="none" stroke="#000000" d="M 396.6958730035415,-340 L 402.1874980957031,-292.31617563066266 L 407.1874973144531,-227.1936264063816 L 409.68749692382806,-162.07107739509468 L 409.68749692382806,-96.94852853574935 L 407.1874973144531,-31.82597976729328 L 402.1874980957031,33.296568971325925 L 394.6874992675781,98.41911774116066 L 391.19898538848133,122.65175250783105" stroke-width="1" stroke-linecap="butt" stroke-linejoin="miter" stroke-miterlimit="10"/><use transform="matrix(0.14249039613851847 -0.9897961845795771 0.9897961845795771 0.14249039613851847 390.34404301165023 128.59052961530853)" xlink:href="#ygc600_0"/></g><g><path fill="none" stroke="#000000" d="M 389.85886336011384,130 L 385.31249936132815,98.41911774116065 L 377.8124983394531,33.29656897132591 L 372.81249765820314,-31.825979767293298 L 370.3124973175781,-96.94852853574938 L 370.3124973175781,-162.07107739509468 L 372.81249765820314,-227.1936264063816 L 377.8124983394531,-292.31617563066266 L 382.4547358719664,-332.624749271165" stroke-width="1" stroke-linecap="butt" stroke-linejoin="miter" stroke-miterlimit="10"/><use transform="matrix(-0.11441124656938453 0.993433473695365 -0.993433473695365 -0.11441124656938453 383.1412033513827 -338.58535011333714)" xlink:href="#ygc600_0"/></g><g><path fill="none" stroke="#000000" d="M -99.58415309206765,-340 L -51.39809829013063,-290.93678140956035 L 11.937850768374753,-222.8916149614305 L 73.35487822683018,-153.24403185843488 L 132.8529841410151,-81.9940320337767 L 190.43216856670904,-9.141615420659004 L 246.09243155969142,65.31321804771504 L 299.8337731757417,141.37046843814235 L 320.8381522763739,172.39746506502817" stroke-width="1" stroke-linecap="butt" stroke-linejoin="miter" stroke-miterlimit="10"/><use transform="matrix(-0.5605936656374692 -0.828091022803137 0.828091022803137 -0.5605936656374692 324.2017142701987 177.366011201847)" xlink:href="#ygc600_0"/></g><g><path fill="none" stroke="#000000" d="M 325,179.12814365681274 L 292.7751603920343,150.60047543917966 L 227.74003832205193,90.53672643715569 L 164.5505883597815,28.786710877076985 L 103.2068104494436,-34.64957130210883 L 43.70870453525866,-99.77212016145415 L -13.943729438552776,-166.58093576201136 L -69.75049152777015,-235.07601816483287 L -123.71158178817296,-305.25736743097104 L -144.87829237296518,-334.0205634320961" stroke-width="1" stroke-linecap="butt" stroke-linejoin="miter" stroke-miterlimit="10"/><use transform="matrix(0.5927048681914445 0.8054197286025233 -0.8054197286025233 0.5927048681914445 -148.43452158211383 -338.85308180371123)" xlink:href="#ygc600_0"/></g><g><path fill="none" stroke="#000000" d="M 437.92503623827014,230 L 483.9407560127722,279.32308345462934 L 544.1151686151113,347.47486112909337 L 602.3273748206997,417.17574984525606 L 658.577374682272,488.42574966991424 L 712.8651682525624,561.2248606698649 L 765.1907555843055,635.5730829119047 L 803.8378501794755,693.8140381957586" stroke-width="1" stroke-linecap="butt" stroke-linejoin="miter" stroke-miterlimit="10"/><use transform="matrix(-0.5529140103878742 -0.8332383195201706 0.8332383195201706 -0.5529140103878742 807.1553342418027 698.8134681128796)" xlink:href="#ygc600_0"/></g><g><path fill="none" stroke="#000000" d="M 792.074962860358,700 L 746.0592383657433,650.67691229498 L 685.8848234571542,582.5251328767661 L 627.6726160984408,512.8242432887283 L 571.4226162368684,441.57424346407004 L 517.1348238197031,368.7751333359945 L 464.8092387942101,294.4269128377046 L 426.1621483851534,236.1859618689667" stroke-width="1" stroke-linecap="butt" stroke-linejoin="miter" stroke-miterlimit="10"/><use transform="matrix(0.5529139972493213 0.8332383282385524 -0.8332383282385524 0.5529139972493213 422.84466440165744 231.1865318995354)" xlink:href="#ygc600_0"/></g><g><path fill="none" stroke="#000000" d="M 396.200657021658,230 L 402.1874980957031,286.874998146167 L 407.1874973144531,358.12499723254393 L 409.68749692382806,429.37499665466316 L 409.68749692382806,500.62499647932134 L 407.1874973144531,571.8749967733154 L 402.1874980957031,643.1249976034424 L 396.97783656407313,692.6167908824518" stroke-width="1" stroke-linecap="butt" stroke-linejoin="miter" stroke-miterlimit="10"/><use transform="matrix(0.10468476625784187 -0.9945054548435321 0.9945054548435321 0.10468476625784187 396.3497279665261 698.583823611513)" xlink:href="#ygc600_0"/></g><g><path fill="none" stroke="#000000" d="M -215,757.1410332933875 L -250.73971128015873,759.7027487454206 L -289.63840130961967,761.1671420691898 L -327.73869449438575,761.2505604347102 L -365.040590836128,759.953003841016 L -401.54409033651746,757.274472287141 L -437.24919299722535,753.2149657721191 L -472.1558988199225,747.774484294984 L -506.26420780628024,740.9530278547697 L -539.5741199579694,732.7505964505101 L -572.0856352766612,723.1671900812393 L -603.7987537640267,712.2028087459909 L -634.713475421737,699.8574524437988 L -664.829800251463,686.131121173697 L -694.1477282548758,671.0238149347193 L -722.6672594336467,654.5355337258999 L -750.3883937894465,636.6662775462722 L -777.3111313239464,617.4160463948706 L -803.4354720388174,596.7848402707284 L -828.7614159357305,574.7726591728801 L -853.2889630163569,551.379503100359 L -877.0181132823677,526.6053720521993 L -899.9488667354339,500.4502660274352 L -922.0812233772264,472.9141850251001 L -943.4151832094165,443.997129044228 L -963.9507462336753,413.6990980838529 L -983.6879124516738,382.0200921430087 L -1002.6266818650827,348.96011122072923 L -1020.7670544755736,314.51915531604834 L -1038.1090302848174,278.697224428 L -1046.797596511202,259.15853142225757" stroke-width="1" stroke-linecap="butt" stroke-linejoin="miter" stroke-miterlimit="10"/><use transform="matrix(0.40632210321273976 0.9137299100066582 -0.9137299100066582 0.40632210321273976 -1049.2355291304784 253.67615196221763)" xlink:href="#ygc600_0"/></g><g><path fill="none" stroke="#000000" d="M -215,759.3153164725528 L -255.97270846471292,764.6532700423156 L -323.17983568749946,771.1502082183424 L -387.63388684262793,775.0296195772278 L -449.3348619317777,776.2915041172055 L -508.28276095662835,774.935861836509 L -564.4775839188594,770.962692733372 L -604.816994975449,766.2650639277297 L -630.8495994111483,762.315334257702 L -656.1939348321373,757.7112228810705 L -680.8500012386262,752.4527297976144 L -704.8177986308247,746.5398550071129 L -728.0973270089429,739.9725985093451 L -750.6885863731907,732.7509603040901 L -772.5915767237781,724.8749403911272 L -793.806298060915,716.3445387702355 L -814.3327503848114,707.1597554411944 L -834.1709336956771,697.3205904037828 L -853.320847993722,686.8270436577801 L -871.7824932791564,675.6791152029655 L -889.5558695521898,663.8768050391182 L -906.6409768130327,651.4201131660169 L -923.0378150618944,638.3090395834415 L -938.7463842989853,624.5435842911709 L -953.766684524515,610.123747288984 L -968.0987157386936,595.0495285766604 L -981.7424779417311,579.3209281539789 L -994.6979711338374,562.9379460207191 L -1006.9651953152224,545.90058217666 L -1018.5441504860963,528.2088366215808 L -1029.4348366466686,509.86270935526045 L -1039.6372537971497,490.8622003774786 L -1049.1514019377491,471.2073096880141 L -1057.9772810686773,450.8980372866463 L -1066.1148911901432,429.9343831731542 L -1073.564232302358,408.3163473473171 L -1080.325304405531,386.0439298089143 L -1086.398107499872,363.11713055772486 L -1091.7826415855911,339.5359495935279 L -1096.4789066628987,315.30038691610264 L -1100.4869027320042,290.4104425252284 L -1103.8066297931173,264.8661164206842 L -1106.4380878464488,238.66740860224934 L -1109.0947705373137,198.142381160569 L -1110.2280725998558,141.81867523765013 L -1108.6082986350484,82.8774424551938 L -1104.2354486445713,21.318682811433533 L -1097.1095226301038,-42.85760369539719 L -1087.2305205933258,-109.6514170670649 L -1074.8880416892302,-177.47145417436982" stroke-width="1" stroke-linecap="butt" stroke-linejoin="miter" stroke-miterlimit="10"/><use transform="matrix(-0.1790478092050617 0.9838403742573628 -0.9838403742573628 -0.1790478092050617 -1073.8137548339998 -183.374496419914)" xlink:href="#ygc600_0"/></g><g><path fill="none" stroke="#000000" d="M 325,759.1310353705157 L 300.7528399877647,762.1874964503905 L 241.25473367700658,767.1874949941407 L 181.75662759242476,769.6874942660156 L 122.25852167823983,769.6874942660156 L 62.76041587867229,767.1874949941407 L 3.2623101379426034,762.1874964503905 L -56.23579559972866,754.6874986347657 L -77.66647836273643,751.3107089069844" stroke-width="1" stroke-linecap="butt" stroke-linejoin="miter" stroke-miterlimit="10"/><use transform="matrix(0.9878126374800063 0.1556476573379557 -0.1556476573379557 0.9878126374800063 -83.59335418761646 750.3768229629567)" xlink:href="#ygc600_0"/></g><g><path fill="none" stroke="#000000" d="M -85.17723349186842,-436.24063495085363 L -75.09250588285961,-443.03227081271547 L -45.013889342885975,-461.9101398302092 L -14.869204861268951,-479.4537006720703 L 15.341547563804212,-495.6629533383887 L 45.61836793414626,-510.53789782925423 L 75.96125625156994,-524.0785341447564 L 106.37021251788795,-536.2848622849849 L 136.8452367349131,-547.15688225003 L 167.3863289044581,-556.6945940399811 L 197.99348902833572,-564.8979976549278 L 228.66671710835868,-571.7670930949602 L 259.4060131463397,-577.301880360168 L 290.21137714409167,-581.5023594506406 L 321.08280910342705,-584.3685303664681 L 352.0203090261588,-585.9003931077402 L 383.0238769140997,-586.0979476745467 L 414.0935127690623,-584.9611940669772 L 445.22921659285953,-582.4901322851217 L 476.43098838730407,-578.6847623290697 L 507.69882815420857,-573.5450841989111 L 539.0327358953859,-567.0710978947354 L 570.4327116126487,-559.262803416633 L 601.8987553078098,-550.120200764693 L 633.4308669826821,-539.6432899390054 L 665.0290466390782,-527.8320709396601 L 696.6932942788105,-514.6865437667466 L 728.4236099036923,-500.2067084203547 L 760.2199935155359,-484.39256490057426 L 792.0824451161544,-467.24411320749505 L 824.0109647073602,-448.7613533412067 L 832.0509574431503,-443.86277368303007" stroke-width="1" stroke-linecap="butt" stroke-linejoin="miter" stroke-miterlimit="10"/><use transform="matrix(-0.8539781242610537 -0.520308911401268 0.520308911401268 -0.8539781242610537 837.1748261887166 -440.74092021462246)" xlink:href="#ygc600_0"/></g><g><path fill="none" stroke="#000000" d="M 846.2006558357822,-340 L 852.1874960390625,-283.1249992487549 L 857.1874944140624,-211.87499909362793 L 859.6874936015623,-140.62499913713378 L 859.6874936015623,-69.37499931247558 L 857.1874944140624,1.8750004471435489 L 852.1874960390625,73.12500020852049 L 846.97783554481,122.61679087061847" stroke-width="1" stroke-linecap="butt" stroke-linejoin="miter" stroke-miterlimit="10"/><use transform="matrix(0.1046847511154727 -0.9945054564374654 0.9945054564374654 0.1046847511154727 846.3497270381171 128.58382360924327)" xlink:href="#ygc600_0"/></g><g><path fill="none" stroke="#000000" d="M 833.7993402064031,130 L 827.8124962828124,73.12500020852049 L 822.8124947578124,1.8750004471435489 L 820.3124939953124,-69.37499931247558 L 820.3124939953124,-140.62499913713378 L 822.8124947578124,-211.87499909362793 L 827.8124962828124,-283.1249992487549 L 833.02216012229,-332.61679092092226" stroke-width="1" stroke-linecap="butt" stroke-linejoin="miter" stroke-miterlimit="10"/><use transform="matrix(-0.10468481548586277 0.994505449661635 -0.994505449661635 -0.10468481548586277 833.6502690152051 -338.58382361889204)" xlink:href="#ygc600_0"/></g><g><path fill="none" stroke="#000000" d="M 775,-430.93733151666885 L 767.6574326161899,-435.3015123762085 L 738.7204057428644,-451.2722150444311 L 709.7833789128233,-466.01440212279044 L 680.8463521243712,-479.5280736112866 L 651.9093253758122,-491.8132295099194 L 622.972298665451,-502.86986981868887 L 594.0352719915921,-512.6979945375952 L 565.0982453525401,-521.2976036666381 L 536.1612187465994,-528.6686972058177 L 507.22419217207414,-534.8112751551341 L 478.2871656272692,-539.7253375145874 L 449.35013911048884,-543.4108842841772 L 420.4131126200376,-545.8679154639037 L 391.47608615422,-547.096431053767 L 362.53905971134037,-547.096431053767 L 333.6020332897033,-545.8679154639037 L 304.66500688761323,-543.4108842841772 L 275.7279805033746,-539.7253375145874 L 246.79095413529194,-534.8112751551341 L 217.85392778166968,-528.6686972058177 L 188.9169014408123,-521.2976036666381 L 159.97987511102428,-512.6979945375952 L 131.04284879061007,-502.86986981868887 L 102.10582247787413,-491.8132295099194 L 73.16879617112097,-479.5280736112866 L 44.23176986865505,-466.01440212279044 L 15.294743568780827,-451.2722150444311 L -13.642282730197216,-435.3015123762085 L -42.579309029974624,-418.1022941181226 L -71.51633533224688,-399.67456027017334 L -78.82855043252563,-394.7851521499341" stroke-width="1" stroke-linecap="butt" stroke-linejoin="miter" stroke-miterlimit="10"/><use transform="matrix(0.8312835464131044 -0.5558485994071157 0.5558485994071157 0.8312835464131044 -83.81625171100426 -391.4500605534914)" xlink:href="#ygc600_0"/></g><g transform="translate(-215 -440)"><rect x="0" y="0" width="130" height="100" rx="6" ry="6" stroke="rgb(0,0,139)" stroke-opacity="1" stroke-width="1" stroke-linecap="butt" stroke-linejoin="miter" stroke-miterlimit="10" fill="rgb(250,250,250)" fill-opacity="1"/></g><g transform="translate(325 -440)"><rect x="0" y="0" width="130" height="100" rx="6" ry="6" stroke="rgb(0,0,139)" stroke-opacity="1" stroke-width="1" stroke-linecap="butt" stroke-linejoin="miter" stroke-miterlimit="10" fill="rgb(250,250,250)" fill-opacity="1"/></g><g transform="translate(-215 130)"><rect x="0" y="0" width="130" height="100" rx="6" ry="6" stroke="rgb(0,0,139)" stroke-opacity="1" stroke-width="1" stroke-linecap="butt" stroke-linejoin="miter" stroke-miterlimit="10" fill="rgb(250,250,250)" fill-opacity="1"/></g><image transform="translate(-1092.625 192.375)" width="60" height="60" xlink:href="data:image/svg+xml;charset=utf-8,%3Csvg%20xmlns%3D%22http%3A%2F%2Fwww.w3.org%2F2000%2Fsvg%22%20viewBox%3D%220%200%20640%20512%22%20width%3D%22640%22%20height%3D%22512%22%20fill%3D%22rgb(51%2C102%2C153)%22%20fill-opacity%3D%221%22%3E%3Cpath%20d%3D%22M224%20256c70.7%200%20128-57.3%20128-128S294.7%200%20224%200%2096%2057.3%2096%20128s57.3%20128%20128%20128zm89.6%2032h-16.7c-22.2%2010.2-46.9%2016-72.9%2016s-50.6-5.8-72.9-16h-16.7C60.2%20288%200%20348.2%200%20422.4V464c0%2026.5%2021.5%2048%2048%2048h352c26.5%200%2048-21.5%2048-48v-41.6c0-74.2-60.2-134.4-134.4-134.4zm323-128.4l-27.8-28.1c-4.6-4.7-12.1-4.7-16.8-.1l-104.8%20104-45.5-45.8c-4.6-4.7-12.1-4.7-16.8-.1l-28.1%2027.9c-4.7%204.6-4.7%2012.1-.1%2016.8l81.7%2082.3c4.6%204.7%2012.1%204.7%2016.8.1l141.3-140.2c4.6-4.7%204.7-12.2.1-16.8z%22%2F%3E%3C%2Fsvg%3E"/><image transform="translate(-1097.25 -244.75)" width="60" height="60" xlink:href="data:image/svg+xml;charset=utf-8,%3Csvg%20xmlns%3D%22http%3A%2F%2Fwww.w3.org%2F2000%2Fsvg%22%20viewBox%3D%220%200%20640%20512%22%20width%3D%22640%22%20height%3D%22512%22%20fill%3D%22rgb(51%2C102%2C153)%22%20fill-opacity%3D%221%22%3E%3Cpath%20d%3D%22M610.5%20373.3c2.6-14.1%202.6-28.5%200-42.6l25.8-14.9c3-1.7%204.3-5.2%203.3-8.5-6.7-21.6-18.2-41.2-33.2-57.4-2.3-2.5-6-3.1-9-1.4l-25.8%2014.9c-10.9-9.3-23.4-16.5-36.9-21.3v-29.8c0-3.4-2.4-6.4-5.7-7.1-22.3-5-45-4.8-66.2%200-3.3.7-5.7%203.7-5.7%207.1v29.8c-13.5%204.8-26%2012-36.9%2021.3l-25.8-14.9c-2.9-1.7-6.7-1.1-9%201.4-15%2016.2-26.5%2035.8-33.2%2057.4-1%203.3.4%206.8%203.3%208.5l25.8%2014.9c-2.6%2014.1-2.6%2028.5%200%2042.6l-25.8%2014.9c-3%201.7-4.3%205.2-3.3%208.5%206.7%2021.6%2018.2%2041.1%2033.2%2057.4%202.3%202.5%206%203.1%209%201.4l25.8-14.9c10.9%209.3%2023.4%2016.5%2036.9%2021.3v29.8c0%203.4%202.4%206.4%205.7%207.1%2022.3%205%2045%204.8%2066.2%200%203.3-.7%205.7-3.7%205.7-7.1v-29.8c13.5-4.8%2026-12%2036.9-21.3l25.8%2014.9c2.9%201.7%206.7%201.1%209-1.4%2015-16.2%2026.5-35.8%2033.2-57.4%201-3.3-.4-6.8-3.3-8.5l-25.8-14.9zM496%20400.5c-26.8%200-48.5-21.8-48.5-48.5s21.8-48.5%2048.5-48.5%2048.5%2021.8%2048.5%2048.5-21.7%2048.5-48.5%2048.5zM224%20256c70.7%200%20128-57.3%20128-128S294.7%200%20224%200%2096%2057.3%2096%20128s57.3%20128%20128%20128zm201.2%20226.5c-2.3-1.2-4.6-2.6-6.8-3.9l-7.9%204.6c-6%203.4-12.8%205.3-19.6%205.3-10.9%200-21.4-4.6-28.9-12.6-18.3-19.8-32.3-43.9-40.2-69.6-5.5-17.7%201.9-36.4%2017.9-45.7l7.9-4.6c-.1-2.6-.1-5.2%200-7.8l-7.9-4.6c-16-9.2-23.4-28-17.9-45.7.9-2.9%202.2-5.8%203.2-8.7-3.8-.3-7.5-1.2-11.4-1.2h-16.7c-22.2%2010.2-46.9%2016-72.9%2016s-50.6-5.8-72.9-16h-16.7C60.2%20288%200%20348.2%200%20422.4V464c0%2026.5%2021.5%2048%2048%2048h352c10.1%200%2019.5-3.2%2027.2-8.5-1.2-3.8-2-7.7-2-11.8v-9.2z%22%2F%3E%3C%2Fsvg%3E"/><g transform="translate(325 130)"><rect x="0" y="0" width="130" height="100" rx="6" ry="6" stroke="rgb(0,0,139)" stroke-opacity="1" stroke-width="1" stroke-linecap="butt" stroke-linejoin="miter" stroke-miterlimit="10" fill="rgb(250,250,250)" fill-opacity="1"/></g><g transform="translate(-215 700)"><rect x="0" y="0" width="130" height="100" rx="6" ry="6" stroke="rgb(0,0,139)" stroke-opacity="1" stroke-width="1" stroke-linecap="butt" stroke-linejoin="miter" stroke-miterlimit="10" fill="rgb(250,250,250)" fill-opacity="1"/></g><g transform="translate(325 700)"><rect x="0" y="0" width="130" height="100" rx="6" ry="6" stroke="rgb(0,0,139)" stroke-opacity="1" stroke-width="1" stroke-linecap="butt" stroke-linejoin="miter" stroke-miterlimit="10" fill="rgb(250,250,250)" fill-opacity="1"/></g><g transform="translate(775 700)"><rect x="0" y="0" width="130" height="100" rx="6" ry="6" stroke="rgb(0,0,139)" stroke-opacity="1" stroke-width="1" stroke-linecap="butt" stroke-linejoin="miter" stroke-miterlimit="10" fill="rgb(250,250,250)" fill-opacity="1"/></g><g transform="translate(775 -440)"><rect x="0" y="0" width="130" height="100" rx="6" ry="6" stroke="rgb(0,0,139)" stroke-opacity="1" stroke-width="1" stroke-linecap="butt" stroke-linejoin="miter" stroke-miterlimit="10" fill="rgb(250,250,250)" fill-opacity="1"/></g><g transform="translate(775 130)"><rect x="0" y="0" width="130" height="100" rx="6" ry="6" stroke="rgb(0,0,139)" stroke-opacity="1" stroke-width="1" stroke-linecap="butt" stroke-linejoin="miter" stroke-miterlimit="10" fill="rgb(250,250,250)" fill-opacity="1"/></g><g transform="matrix(0.8109104305997253 -0.5851702944823567 0.5851702944823567 0.8109104305997253 -718.7190888589168 -84.60220789734225)"><text font-family="Arial" font-size="16px" font-style="normal" font-weight="normal" text-decoration="none" text-anchor="middle" fill="black" dy="0.90625em" xml:space="preserve" transform="translate(80 0)">password / permission</text></g><g transform="translate(28.787999688349416 -437.68749692382806)"><text font-family="Arial" font-size="16px" font-style="normal" font-weight="normal" text-decoration="none" text-anchor="middle" fill="black" dy="0.90625em" xml:space="preserve" transform="translate(87.5 0)">[srun req, sinfo req ...] / -</text></g><g transform="matrix(0.037896195825766955 -0.9992816811800039 0.9992816811800039 0.037896195825766955 -102.86067775579143 -54.472738865501356)"><text font-family="Arial" font-size="16px" font-style="normal" font-weight="normal" text-decoration="none" text-anchor="middle" fill="black" dy="0.90625em" xml:space="preserve" transform="translate(53 0)">[jwt req, uid] / -</text></g><g transform="matrix(0.9964784022883348 -0.08384982869921388 0.08384982869921388 0.9964784022883348 -684.9060720938267 327.5218111388093)"><text font-family="Arial" font-size="16px" font-style="normal" font-weight="normal" text-decoration="none" text-anchor="middle" fill="black" dy="0.90625em" xml:space="preserve" transform="translate(53 0)">[jwt req, uid] / -</text></g><g transform="matrix(0.9858186342389967 -0.16781424369569814 0.16781424369569814 0.9858186342389967 -654.5625075487826 -389.12031109287705)"><text font-family="Arial" font-size="16px" font-style="normal" font-weight="normal" text-decoration="none" text-anchor="middle" fill="black" dy="0.90625em" xml:space="preserve" transform="translate(73 0)">ssh key / permission</text></g><g transform="matrix(0.8471656775562184 -0.5313288198194348 0.5313288198194348 0.8471656775562184 -31.16773094847339 139.70592741226392)"><text font-family="Arial" font-size="16px" font-style="normal" font-weight="normal" text-decoration="none" text-anchor="middle" fill="black" dy="0.90625em" xml:space="preserve" transform="translate(97.5 0)">[GET, POST] / RESPONSE</text></g><g transform="matrix(0.9191272187298795 0.39396085565684863 -0.39396085565684863 0.9191272187298795 -776.0149959114598 169.10088739998912)"><text font-family="Arial" font-size="16px" font-style="normal" font-weight="normal" text-decoration="none" text-anchor="middle" fill="black" dy="0.90625em" xml:space="preserve" transform="translate(53 0)">[jwt req, uid] / -</text></g><g transform="matrix(0.9989890149723799 -0.04495495483830562 0.04495495483830562 0.9989890149723799 -662.3602762110197 511.7077246560016)"><text font-family="Arial" font-size="16px" font-style="normal" font-weight="normal" text-decoration="none" text-anchor="middle" fill="black" dy="0.90625em" xml:space="preserve" transform="translate(48 0)">- / [jwt token] </text></g><g transform="matrix(0.9185483096171003 0.39530874376816855 -0.39530874376816855 0.9185483096171003 -703.1500115748503 60.5837092074764)"><text font-family="Arial" font-size="16px" font-style="normal" font-weight="normal" text-decoration="none" text-anchor="middle" fill="black" dy="0.90625em" xml:space="preserve" transform="translate(48 0)">- / [jwt token] </text></g><g transform="matrix(6.123233995736766e-17 -1 1 6.123233995736766e-17 -197.6874986957031 -51.28799968740035)"><text font-family="Arial" font-size="16px" font-style="normal" font-weight="normal" text-decoration="none" text-anchor="middle" fill="black" dy="0.90625em" xml:space="preserve" transform="translate(50 0)">- / [jwt token]  </text></g><g transform="translate(555.7879996971684 -437.687496923828)"><text font-family="Arial" font-size="16px" font-style="normal" font-weight="normal" text-decoration="none" text-anchor="middle" fill="black" dy="0.90625em" xml:space="preserve" transform="translate(55.5 0)">srun req / job id</text></g><g transform="matrix(1 1.2246467991473532e-16 -1.2246467991473532e-16 1 602.3197682028223 -360.3124973175781)"><text font-family="Arial" font-size="16px" font-style="normal" font-weight="normal" text-decoration="none" text-anchor="middle" fill="black" dy="0.90625em" xml:space="preserve" transform="translate(22.5 0)">- / log </text></g><g transform="matrix(1 1.2246467991473532e-16 -1.2246467991473532e-16 1 78.89507764611224 -360.3124973175781)"><text font-family="Arial" font-size="16px" font-style="normal" font-weight="normal" text-decoration="none" text-anchor="middle" fill="black" dy="0.90625em" xml:space="preserve" transform="translate(44.5 0)">- / sinfo resp</text></g><g transform="matrix(1.8369701987210297e-16 -1 1 1.8369701987210297e-16 419.68749692382806 -79.99158219904689)"><text font-family="Arial" font-size="16px" font-style="normal" font-weight="normal" text-decoration="none" text-anchor="middle" fill="black" dy="0.90625em" xml:space="preserve" transform="translate(28.5 0)">INFO / -</text></g><g transform="matrix(6.123233995736766e-17 -1 1 6.123233995736766e-17 342.3124973175781 -72.56758144647927)"><text font-family="Arial" font-size="16px" font-style="normal" font-weight="normal" text-decoration="none" text-anchor="middle" fill="black" dy="0.90625em" xml:space="preserve" transform="translate(28.5 0)">- / INFO</text></g><g transform="matrix(0.640966747809089 0.7675686472251454 -0.7675686472251454 0.640966747809089 127.3817536303038 -132.22993758086793)"><text font-family="Arial" font-size="16px" font-style="normal" font-weight="normal" text-decoration="none" text-anchor="middle" fill="black" dy="0.90625em" xml:space="preserve" transform="translate(42 0)">sacct req / -</text></g><g transform="matrix(0.6316454302156143 0.7752574091795135 -0.7752574091795135 0.6316454302156143 -107.78785134585559 -265.9299499631605)"><text font-family="Arial" font-size="16px" font-style="normal" font-weight="normal" text-decoration="none" text-anchor="middle" fill="black" dy="0.90625em" xml:space="preserve" transform="translate(48.5 0)">- / sacct resp </text></g><g transform="matrix(0.6196442885790207 0.7848827655334263 -0.7848827655334263 0.6196442885790207 644.5106123089081 425.42063516585523)"><text font-family="Arial" font-size="16px" font-style="normal" font-weight="normal" text-decoration="none" text-anchor="middle" fill="black" dy="0.90625em" xml:space="preserve" transform="translate(14 0)">? / -</text></g><g transform="matrix(0.6196442885790211 0.784882765533426 -0.784882765533426 0.6196442885790211 582.2672346985906 471.44905143146514)"><text font-family="Arial" font-size="16px" font-style="normal" font-weight="normal" text-decoration="none" text-anchor="middle" fill="black" dy="0.90625em" xml:space="preserve" transform="translate(14 0)">- / ?</text></g><g transform="matrix(1.8369701987210297e-16 -1 1 1.8369701987210297e-16 419.68749692382806 475.2879996857208)"><text font-family="Arial" font-size="16px" font-style="normal" font-weight="normal" text-decoration="none" text-anchor="middle" fill="black" dy="0.90625em" xml:space="preserve" transform="translate(14 0)">? / -</text></g><g transform="matrix(0.8657292114088718 0.500512669683169 -0.500512669683169 0.8657292114088718 -755.9852770262537 646.8240116404178)"><text font-family="Arial" font-size="16px" font-style="normal" font-weight="normal" text-decoration="none" text-anchor="middle" fill="black" dy="0.90625em" xml:space="preserve" transform="translate(36.5 0)">- / monitor</text></g><g transform="matrix(0.6552680528289059 0.7553964382639187 -0.7553964382639187 0.6552680528289059 -1001.8028045187465 571.4562089380187)"><text font-family="Arial" font-size="16px" font-style="normal" font-weight="normal" text-decoration="none" text-anchor="middle" fill="black" dy="0.90625em" xml:space="preserve" transform="translate(36.5 0)">- / monitor</text></g><g transform="matrix(1 1.2246467991473532e-16 -1.2246467991473532e-16 1 98.3950779156884 779.6874942660156)"><text font-family="Arial" font-size="16px" font-style="normal" font-weight="normal" text-decoration="none" text-anchor="middle" fill="black" dy="0.90625em" xml:space="preserve" transform="translate(25 0)">- / data</text></g><g transform="matrix(0.9999796994606666 -0.006371865233586046 0.006371865233586046 0.9999796994606666 329.02098928401716 -613.7544099934445)"><text font-family="Arial" font-size="16px" font-style="normal" font-weight="normal" text-decoration="none" text-anchor="middle" fill="black" dy="0.90625em" xml:space="preserve" transform="translate(42.5 0)">sstat req /  -</text></g><g transform="matrix(1.8369701987210297e-16 -1 1 1.8369701987210297e-16 869.6874936015623 -68.21200031161999)"><text font-family="Arial" font-size="16px" font-style="normal" font-weight="normal" text-decoration="none" text-anchor="middle" fill="black" dy="0.90625em" xml:space="preserve" transform="translate(40.5 0)">sstat req / -</text></g><g transform="matrix(6.123233995736766e-17 -1 1 6.123233995736766e-17 792.3124939953125 -56.787999687400344)"><text font-family="Arial" font-size="16px" font-style="normal" font-weight="normal" text-decoration="none" text-anchor="middle" fill="black" dy="0.90625em" xml:space="preserve" transform="translate(44.5 0)">- / sstat resp</text></g><g transform="matrix(0.9991000115235349 -0.04241658842566687 0.04241658842566687 0.9991000115235349 297.265821318638 -572.3504913288849)"><text font-family="Arial" font-size="16px" font-style="normal" font-weight="normal" text-decoration="none" text-anchor="middle" fill="black" dy="0.90625em" xml:space="preserve" transform="translate(44.5 0)">- / sstat resp</text></g><g transform="translate(-213 -438)"><text font-family="Arial" font-size="16px" font-style="normal" font-weight="normal" text-decoration="none" text-anchor="middle" fill="rgb(0,0,0)" fill-opacity="1" dy="0.90625em" xml:space="preserve" transform="translate(63 39)">login</text></g><g transform="translate(327 -438)"><text font-family="Arial" font-size="16px" font-style="normal" font-weight="normal" text-decoration="none" text-anchor="middle" fill="rgb(0,0,0)" fill-opacity="1" dy="0.90625em" xml:space="preserve" transform="translate(63 39)">slurmctld</text></g><g transform="translate(-213 132)"><text font-family="Arial" font-size="16px" font-style="normal" font-weight="normal" text-decoration="none" text-anchor="middle" fill="rgb(0,0,0)" fill-opacity="1" dy="0.90625em" xml:space="preserve" transform="translate(63 39)">slurmrestd</text></g><g transform="translate(-1114.125 257.375)"><text font-family="Arial" font-size="16px" font-style="normal" font-weight="normal" text-decoration="none" text-anchor="middle" fill="black" dy="0.90625em" xml:space="preserve" transform="translate(51.5 0)">permitted user</text></g><g transform="translate(-1081.25 -179.75)"><text font-family="Arial" font-size="16px" font-style="normal" font-weight="normal" text-decoration="none" text-anchor="middle" fill="black" dy="0.90625em" xml:space="preserve" transform="translate(14 0)">root</text></g><g transform="translate(327 132)"><text font-family="Arial" font-size="16px" font-style="normal" font-weight="normal" text-decoration="none" text-anchor="middle" fill="rgb(0,0,0)" fill-opacity="1" dy="0.90625em" xml:space="preserve" transform="translate(63 39)">slurmdbd</text></g><g transform="translate(-213 702)"><text font-family="Arial" font-size="16px" font-style="normal" font-weight="normal" text-decoration="none" text-anchor="middle" fill="rgb(0,0,0)" fill-opacity="1" dy="0.90625em" xml:space="preserve" transform="translate(63 39)">grafana</text></g><g transform="translate(327 702)"><text font-family="Arial" font-size="16px" font-style="normal" font-weight="normal" text-decoration="none" text-anchor="middle" fill="rgb(0,0,0)" fill-opacity="1" dy="0.90625em" xml:space="preserve" transform="translate(63 39)">elasticsearch</text></g><g transform="translate(777 702)"><text font-family="Arial" font-size="16px" font-style="normal" font-weight="normal" text-decoration="none" text-anchor="middle" fill="rgb(0,0,0)" fill-opacity="1" dy="0.90625em" xml:space="preserve" transform="translate(63 39)">mariadb</text></g><g transform="translate(777 -438)"><text font-family="Arial" font-size="16px" font-style="normal" font-weight="normal" text-decoration="none" text-anchor="middle" fill="rgb(0,0,0)" fill-opacity="1" dy="0.90625em" xml:space="preserve" transform="translate(63 39)">slurmd(compute)</text></g><g transform="translate(777 132)"><text font-family="Arial" font-size="16px" font-style="normal" font-weight="normal" text-decoration="none" text-anchor="middle" fill="rgb(0,0,0)" fill-opacity="1" dy="0.90625em" xml:space="preserve" transform="translate(63 39)">cgroup v2</text></g></g></g></g><defs><path fill="rgb(0,0,0)" stroke="#000000" d="M 0,0 L 8,-3 L 6,0 L 8,3 Z" fill-opacity="1" stroke-width="1" stroke-linecap="butt" stroke-linejoin="miter" stroke-miterlimit="10" id="ygc600_0"/></defs></svg>