<svg xmlns="http://www.w3.org/2000/svg" xmlns:xlink="http://www.w3.org/1999/xlink" xmlns:lucid="lucid" width="2861" height="1762"><g transform="translate(2140 581)" lucid:page-tab-id="0_0"><path d="M-160-114a6 6 0 0 1 6-6h628a6 6 0 0 1 6 6v408a6 6 0 0 1-6 6h-628a6 6 0 0 1-6-6z" fill="#fff" fill-opacity="0"/><path d="M-156.72-119.35l.87-.36.9-.23.95-.07h3m3.98 0h5.98m4 0h5.97m3.98 0h6m3.98 0h5.98m4 0h5.97m4 0h5.97m4 0h5.97m4 0h5.97m3.98 0h5.98m4 0h5.97m4 0h5.97m4 0h5.97m4 0h5.98m4 0h5.97m3.98 0h5.98m4 0h5.98m4 0h5.97m4 0h5.97m4 0h5.97m3.98 0h5.98m3.98 0h5.98m4 0h5.97m3.98 0h5.98m4 0h5.97m4 0h5.97m3.98 0h5.98m4 0h5.97m4 0h5.97m4 0h5.97m4 0h5.97m4 0H158m4 0h5.97m4 0h5.97m4 0h5.97m4 0h5.98m4 0h5.97m4 0h5.97m3.98 0h5.98m4 0h5.97m4 0h5.97m4 0h5.97m3.98 0h5.98m3.98 0h6m3.97 0h6m3.98 0h5.98m4 0h5.97m4 0h5.97m4 0h5.97m3.98 0h6m3.97 0h5.98m4 0h5.97m4 0h5.97m4 0h5.97m4 0h5.98m3.98 0h5.98m4 0h5.97m4 0h5.98m4 0h5.97m4 0h5.97m4 0h5.97m3.97 0h5.98m4 0H467m4 0H474l.94.07.9.22.88.35m2.63 2.63l.36.87.23.9.07.95v2.98m0 4v5.96m0 3.98v5.97m0 3.97v5.97m0 3.98v5.97m0 3.97v5.97m0 3.98v5.97m0 3.97v5.97m0 3.98v5.98m0 3.98v5.97m0 3.98v5.97m0 3.98v5.97m0 3.98V8.4m0 3.98v5.97m0 3.98v5.97m0 3.98v5.97m0 3.98v5.98m0 3.98v5.98m0 3.98v5.97m0 4v5.96m0 3.98V88m0 4v5.96m0 3.98v5.97m0 4v5.96m0 3.98v5.97m0 4v5.97m0 3.98v5.97m0 3.98v5.97m0 3.98v5.97m0 3.98v5.97m0 3.98v5.97m0 3.98v5.97m0 3.98v5.97m0 4v5.96m0 3.98v5.97m0 3.98v5.98m0 3.98v5.97m0 3.98v5.98m0 3.98v5.97m0 3.98v5.98m0 3.98v5.97m0 4V294l-.07.94-.22.9-.35.88m-2.63 2.63l-.87.36-.9.23-.95.07h-3m-3.98 0h-5.98m-4 0h-5.97m-3.98 0h-6m-3.98 0h-5.98m-4 0h-5.97m-4 0h-5.97m-4 0h-5.97m-4 0h-5.97m-3.98 0h-5.98m-4 0h-5.97m-4 0h-5.97m-4 0h-5.97m-4 0h-5.98m-4 0h-5.97m-3.98 0h-5.98m-4 0h-5.98m-4 0h-5.97m-4 0h-5.97m-4 0h-5.97m-3.98 0h-5.98m-3.98 0h-5.98m-4 0h-5.97m-3.98 0h-5.98m-4 0h-5.97m-4 0h-5.97m-3.98 0h-5.98m-4 0h-5.97m-4 0h-5.97m-4 0h-5.97m-4 0h-5.97m-4 0H162m-4 0h-5.97m-4 0h-5.97m-4 0h-5.97m-4 0h-5.98m-4 0h-5.97m-3.98 0h-6m-3.97 0h-5.98m-4 0h-5.97m-4 0H72.3m-4 0h-5.97m-3.98 0h-5.98m-3.98 0h-5.98m-4 0h-5.97m-3.98 0h-5.98m-4 0h-5.97m-4 0H2.5m-4 0h-5.97m-3.98 0h-5.98m-4 0h-5.97m-4 0h-5.97m-4 0h-5.97m-4 0h-5.97m-4 0h-5.98m-3.98 0h-5.98m-4 0h-5.97m-4 0h-5.98m-4 0h-5.97m-4 0h-5.97m-3.98 0h-6m-3.97 0h-5.98m-4 0H-147m-4 0H-154l-.94-.07-.9-.22-.88-.35m-2.63-2.63l-.36-.87-.23-.9-.07-.95v-3m0-3.97v-5.97m0-3.98v-5.97m0-3.97v-5.97m0-3.98v-5.97m0-3.97v-5.97m0-3.98v-5.97m0-3.97v-5.97m0-3.98v-5.97m0-3.98v-5.97m0-3.98v-5.97m0-3.98v-5.97m0-3.98v-5.97m0-3.98v-5.97m0-3.98v-5.97m0-3.98v-5.97m0-3.98v-5.98m0-4v-5.96m0-3.98v-5.97m0-4v-5.96m0-3.98V92m0-4v-5.96m0-3.98V72.1m0-4v-5.96m0-3.98V52.2m0-4v-5.97m0-3.98v-5.97m0-3.98v-5.97m0-3.98v-5.97m0-3.98V2.43m0-3.98v-5.97m0-3.98v-5.97m0-3.98v-5.97m0-3.98v-5.98m0-3.98v-5.97m0-3.98v-5.98m0-3.98v-5.97m0-3.98v-5.98m0-3.98v-5.97m0-3.98v-5.98m0-3.98v-5.97m0-3.98v-3l.07-.94.22-.9.35-.88" stroke="#000" stroke-width="2" fill="none"/><use xlink:href="#a" transform="matrix(1,0,0,1,-140,-100) translate(0 17.77777777777778)"/><use xlink:href="#b" transform="matrix(1,0,0,1,-140,-100) translate(85.55555555555556 17.77777777777778)"/><path d="M-1240-574a6 6 0 0 1 6-6H714a6 6 0 0 1 6 6v1748a6 6 0 0 1-6 6h-1948a6 6 0 0 1-6-6z" fill="#fff" fill-opacity="0"/><path d="M-1222.03-580h8m7.97 0h8m7.97 0h8m7.98 0h7.98m7.98 0h8m7.97 0h8m7.98 0h7.98m8 0h7.97m7.98 0h8m7.98 0h7.98m8 0h7.97m7.98 0h8m7.98 0h8m7.97 0h7.98m8 0h7.97m7.98 0h8m7.97 0h7.98m8 0h7.97m8 0h7.97m7.98 0h8m7.97 0h7.98m8 0h7.97m7.98 0h8m7.97 0h8m7.97 0h7.97m8 0h7.97m7.98 0h8m7.97 0h7.97m8 0h7.97m8 0h7.97m8 0h7.98m7.98 0h7.98m8 0h7.97m8 0h7.98m7.98 0h7.98m8 0h7.97m8 0h7.98m7.98 0h8m7.97 0h7.98m8 0h7.98m7.98 0h8m7.97 0h8m7.97 0h7.98m8 0h7.97m7.98 0h8m7.97 0h7.98m8 0h7.97m7.98 0h8m7.97 0h8m7.97 0h7.98m8 0h7.97m7.98 0h8m7.97 0h7.98m8 0h7.97m7.98 0h8m7.97 0h8m7.97 0h7.98m8 0h7.97m7.97 0h8m7.97 0h7.98m8 0h7.97m7.97 0h8m7.97 0h8m7.97 0h8m7.98 0h7.98m7.98 0h8m7.97 0h8m7.98 0h7.98m8 0h7.97m7.98 0h8m7.98 0h7.98m8 0h7.97m7.98 0h8m7.98 0h8m7.97 0h7.98m8 0h7.97m7.98 0h8m7.97 0h7.98m8 0h7.97m7.98 0h8m7.97 0h8m7.97 0h7.98m8 0h7.97m7.98 0h8m7.97 0h7.98m8 0h7.97m8 0h7.97m7.98 0h8m7.97 0h7.97m8 0h7.97m8 0H223m8 0h7.97m8 0h7.97m8 0h7.97m8 0h7.98m7.98 0h7.98m8 0h7.97m8 0h7.98m7.98 0h8m7.97 0h7.98m8 0h7.98m7.98 0h8m7.97 0h8m7.97 0h7.98m8 0h7.97m7.98 0h8m7.97 0h7.98m8 0h7.97m7.98 0h8m7.97 0h8m7.97 0h7.98m8 0h7.97m7.98 0h8m7.97 0h7.98m8 0h7.97m8 0h7.97m7.97 0h8m7.97 0h7.98m8 0h7.97m7.97 0h8m7.97 0h8m7.97 0h4a6 6 0 0 1 6 6v4m0 8.03v8.02m0 8v8.03m0 8.02v8.02m0 8.02v8.02m0 8v8.03m0 8v8.03m0 8.02v8.02m0 8v8.03m0 8.02v8.02m0 8.02v8.02m0 8v8.03m0 8.03v8.02m0 8.02v8.02m0 8v8.02m0 8.02v8.02m0 8.02v8.02m0 8v8.03m0 8.02v8.02m0 8.02v8m0 8.03v8m0 8.03v8.02m0 8.02v8.02m0 8.02v8m0 8.03v8.02m0 8v8.03m0 8v8.03m0 8.02v8.02m0 8.02v8.02m0 8.02v8m0 8.03v8m0 8.03v8.02m0 8.02v8m0 8.03v8.02m0 8.02v8.02m0 8v8.03m0 8v8.03m0 8.02v8.02m0 8.02v8m0 8.02v8.02m0 8.02v8.02m0 8.02v8m0 8.03v8.02m0 8.02v8.02m0 8v8.02m0 8.02v8.02m0 8.02v8.02m0 8.02v8m0 8.03v8.02m0 8.02v8m0 8.03v8m0 8.03v8.02m0 8.02v8.02m0 8.02v8m0 8.03V296m0 8v8.03m0 8.02v8m0 8.03v8.02m0 8.02v8.02m0 8.02v8m0 8.03v8m0 8.03v8.02m0 8.02v8m0 8.03v8.02m0 8.02v8.02m0 8.02v8m0 8.03v8.03m0 8.02v8.02m0 8.02v8m0 8.02v8.02m0 8.02v8.02m0 8.02v8m0 8.03v8.02m0 8.02v8.02m0 8v8.02m0 8.02v8.02m0 8.02v8.02m0 8.02v8m0 8.03v8.02m0 8.02v8m0 8.03v8.02m0 8V729m0 8.02v8.02m0 8.02v8m0 8.03v8.02m0 8v8.03m0 8.02v8m0 8.03v8.02m0 8.02v8.02m0 8.02v8m0 8.03v8m0 8.03v8.02m0 8.02v8m0 8.03v8.02m0 8.02v8.02m0 8.02v8m0 8.03v8.03m0 8.02v8.02m0 8.02v8m0 8.02v8.02m0 8.02v8.02m0 8.02v8.02m0 8v8.03m0 8.02v8.02m0 8v8.03m0 8v8.03m0 8.02v8.02m0 8.02v8.02m0 8v8.03m0 8.02v4a6 6 0 0 1-6 6h-4m-7.98 0h-7.98m-7.98 0h-8m-7.97 0h-8m-7.98 0h-7.98m-7.98 0h-8m-7.97 0h-8m-7.98 0h-7.98m-8 0h-7.97m-7.98 0h-8m-7.98 0h-7.98m-8 0h-7.97m-8 0h-7.97m-7.98 0h-8m-7.97 0h-7.98m-8 0h-7.97m-7.98 0h-8m-7.97 0h-7.98m-8 0h-7.97m-8 0h-7.97m-7.98 0h-8m-7.97 0h-7.98m-8 0h-7.97m-7.98 0h-8m-7.97 0h-7.98m-8 0h-7.97m-8 0h-7.97m-7.98 0h-8m-7.97 0h-7.97m-8 0h-7.97m-8 0H231m-8 0h-7.97m-8 0h-7.97m-8 0h-7.97m-8 0h-7.98m-7.98 0h-7.98m-8 0h-7.97m-8 0h-7.98m-7.98 0h-8m-7.97 0H87.3m-8 0h-7.98m-7.98 0h-8m-7.97 0H39.4m-8 0h-7.98m-8 0H7.46m-7.98 0h-8m-7.97 0h-7.98m-8 0h-7.97m-7.98 0h-8m-7.97 0h-7.98m-8 0h-7.97m-8 0h-7.97m-7.98 0h-8m-7.97 0h-7.98m-8 0h-7.97m-8 0h-7.97m-7.97 0h-8m-7.97 0h-7.98m-8 0h-7.97m-7.97 0h-8m-7.97 0h-8m-7.97 0h-8m-7.98 0h-7.98m-7.98 0h-8m-7.97 0h-8m-7.98 0h-7.98m-7.98 0h-8m-7.97 0h-8m-7.98 0h-7.98m-8 0h-7.97m-7.98 0h-8m-7.98 0h-7.98m-8 0h-7.97m-8 0h-7.97m-7.98 0h-8m-7.97 0h-7.98m-8 0h-7.97m-7.98 0h-8m-7.97 0h-7.98m-8 0h-7.97m-8 0h-7.97m-7.98 0h-8m-7.97 0h-7.98m-8 0h-7.97m-7.98 0h-8m-7.97 0h-8m-7.97 0h-7.97m-8 0h-7.97m-7.98 0h-8m-7.97 0h-7.97m-8 0h-7.97m-8 0H-743m-8 0h-7.98m-7.98 0h-7.98m-8 0h-7.97m-8 0h-7.98m-7.98 0h-7.98m-8 0h-7.97m-8 0h-7.98m-7.98 0h-8m-7.97 0h-7.98m-8 0h-7.98m-7.98 0h-8m-7.97 0h-8m-7.97 0h-7.98m-8 0h-7.97m-7.98 0h-8m-7.97 0h-7.98m-8 0h-7.97m-7.98 0h-8m-7.97 0h-7.98m-8 0h-7.97m-8 0h-7.97m-7.98 0h-8m-7.97 0h-7.98m-8 0h-7.97m-7.98 0h-8m-7.97 0h-8m-7.97 0h-7.98m-8 0h-7.97m-7.97 0h-8m-7.97 0h-8m-7.97 0h-4a6 6 0 0 1-6-6v-4m0-8.03v-8.02m0-8v-8.03m0-8.02v-8.02m0-8.02v-8.02m0-8v-8.03m0-8v-8.03m0-8.02v-8.02m0-8v-8.03m0-8.02v-8.02m0-8.02v-8.02m0-8v-8.03m0-8.03v-8.02m0-8.02v-8.02m0-8v-8.02m0-8.02v-8.02m0-8.02v-8.02m0-8v-8.03m0-8.02v-8.02m0-8.02v-8m0-8.02v-8.02m0-8.02v-8.02m0-8.02v-8.02m0-8v-8.03m0-8.02v-8.02m0-8v-8.03m0-8.02v-8m0-8.03V737m0-8.02v-8.02m0-8v-8.03m0-8.02v-8m0-8.03v-8.02m0-8v-8.03m0-8.02v-8.02m0-8.02v-8.02m0-8v-8.03m0-8v-8.03m0-8.02v-8.02m0-8v-8.03m0-8.02v-8.02m0-8.02v-8.02m0-8v-8.03m0-8.03v-8.02m0-8.02v-8.02m0-8v-8.02m0-8.02v-8.02m0-8.02v-8.02m0-8.02v-8m0-8.03v-8.02m0-8.02v-8m0-8.03v-8m0-8.03v-8.02m0-8.02v-8.02m0-8.02v-8m0-8.03V304m0-8v-8.03m0-8.02v-8m0-8.03v-8.02m0-8.02v-8.02m0-8.02v-8m0-8.03v-8m0-8.03v-8.02m0-8.02v-8m0-8.03v-8.02m0-8.02v-8.02m0-8.02v-8m0-8.03v-8.03m0-8.02v-8.02m0-8.02v-8m0-8.02v-8.02m0-8.02v-8.02m0-8.02v-8m0-8.03v-8.02m0-8.02V-.7m0-8v-8.03m0-8v-8.03m0-8.02v-8.02m0-8.02v-8m0-8.03v-8.02m0-8.02v-8m0-8.03v-8m0-8.03v-8.02m0-8.02v-8.02m0-8.02v-8.02m0-8v-8.03m0-8v-8.03m0-8.02v-8m0-8.03v-8.02m0-8.02v-8.02m0-8.02v-8m0-8.03v-8m0-8.03v-8.02m0-8.02v-8m0-8.03v-8.02m0-8.02v-8.02m0-8.02v-8m0-8.03v-8.03m0-8.02v-8.02m0-8.02v-8m0-8.02v-8.02m0-8.02v-8.02m0-8.02v-8.02m0-8v-8.03m0-8.02v-8.02m0-8v-8.03m0-8v-8.03m0-8.02v-8.02m0-8.02v-8.02m0-8v-8.03m0-8.02v-4a6 6 0 0 1 6-6h4" stroke="#e81313" stroke-width="2" fill="none"/><use xlink:href="#c" transform="matrix(1,0,0,1,-1220,-560) translate(0 24.888888888888893)"/><path d="M-940-104a6 6 0 0 1 6-6h388a6 6 0 0 1 6 6V4a6 6 0 0 1-6 6h-388a6 6 0 0 1-6-6z" stroke="#000" stroke-width="2" fill="#fff"/><use xlink:href="#d" transform="matrix(1,0,0,1,-932,-102) translate(128.22222222222223 58.22222222222222)"/><path d="M-80-294a6 6 0 0 1 6-6h388a6 6 0 0 1 6 6v118a6 6 0 0 1-6 6H-74a6 6 0 0 1-6-6z" stroke="#000" stroke-width="2" fill="#fff"/><use xlink:href="#e" transform="matrix(1,0,0,1,-72,-292) translate(127.35802469135803 63.22222222222222)"/><path d="M-80-54a6 6 0 0 1 6-6h388a6 6 0 0 1 6 6V65a6 6 0 0 1-6 6H-74a6 6 0 0 1-6-6z" stroke="#000" stroke-width="2" fill="#fff"/><use xlink:href="#f" transform="matrix(1,0,0,1,-72,-52) translate(127.35802469135803 63.72222222222222)"/><path d="M-740 436a6 6 0 0 1 6-6h388a6 6 0 0 1 6 6v108a6 6 0 0 1-6 6h-388a6 6 0 0 1-6-6z" stroke="#000" stroke-width="2" fill="#fff"/><use xlink:href="#g" transform="matrix(1,0,0,1,-732,437.9999999999999) translate(127.2716049382716 58.22222222222222)"/><path d="M-80 106a6 6 0 0 1 6-6h388a6 6 0 0 1 6 6v118a6 6 0 0 1-6 6H-74a6 6 0 0 1-6-6z" stroke="#000" stroke-width="2" fill="#fff"/><use xlink:href="#h" transform="matrix(1,0,0,1,-72,108) translate(127.35802469135803 63.22222222222222)"/><path d="M-1525.78 405c0 35.45-28.76 64.2-64.2 64.2-35.42 0-64.18-28.75-64.18-64.2 0-35.42 28.76-64.18 64.2-64.18 35.42 0 64.18 28.76 64.18 64.2z" stroke="#000" stroke-opacity="0" stroke-width="9.38"/><path d="M-1590 335c-38.64 0-70 31.36-70 70s31.36 70 70 70 70-31.36 70-70-31.36-70-70-70zm0 134.12c-35.42 0-64.12-28.7-64.12-64.12s28.7-64.12 64.12-64.12 64.12 28.7 64.12 64.12-28.7 64.12-64.12 64.12z" stroke="#000" stroke-opacity="0" stroke-width="9.38" fill="#fff"/><path d="M-1568.16 392.44v25L-1590 429.9l-21.84-12.5v-25l21.84-12.48 21.84 12.5zM-1577.12 362.76v14.66l-2.46 1.4-10.35-5.07-10.35 5.07-2.46-1.4v-14.66l12.8-7.32 12.82 7.32zM-1546.32 418.16v14.56l-12.74 7.28-12.74-7.28v-4.7l10.93-6.22v-9.87l1.8-1.05 12.75 7.28zM-1608.48 428.2v4.63l-12.6 7.17-12.6-7.18V418.5l12.6-7.18 1.8 1.03v9.73l10.8 6.14z" stroke="#000" stroke-opacity="0" stroke-width="9.38" fill="#fff"/><use xlink:href="#i" transform="matrix(1,0,0,1,-1690,483.9999999999999) translate(33.37037037037037 24.888888888888893)"/><path d="M224.2-280L200-266.16v27.67l24.2 13.84 24.2-13.83v-27.66L224.2-280zm23.05 40.84l-22.46 12.84v-7.08h-1.17v7.08l-22.47-12.84v-25.57l5.9 4 .64-1-6.05-4.05 22.56-12.9 22.67 12.85-6.15 4.15.63 1 5.9-4v25.52z" stroke="#000" stroke-opacity="0" stroke-width="2.78" fill="#76b900"/><path d="M200-236.17v4.6l24.2 13.82 24.2-13.82v-4.6l-24.2 13.82-24.2-13.82zM234.08-242.1c0 .55-.2 1.08-.6 1.5-.8.76-2.16.76-2.96 0l-7.14-7.17-.82-.82-2.3-2.3-.83-.84-1-.98-4.4.62-4-4v-2.05l.66-.68 3.56 3.58 3.82-.76.77-3.8-3.58-3.6.67-.66H218l4 4-.65 4.38 1.02 1 .8.83 2.32 2.33.8.82 7.18 7.13c.4.4.6.92.6 1.47zM238.63-255.86l-3.56 3.56-1.38-1.37-.64-1.9-1.75-1.74-1.88 1.87-2.3-2.3 3.13-3.16-3.2-3.16h3.4l3.8 3.8-.63.63 1.76 1.75 1.88.64 1.37 1.38z" stroke="#000" stroke-opacity="0" stroke-width="2.78" fill="#76b900"/><path d="M221.8-247.8l-7.54 7.52-2.25-2.4 7.47-7.44 2.32 2.32z" stroke="#000" stroke-opacity="0" stroke-width="2.78" fill="#76b900"/><path d="M224-254.7l2.28-2.27 2.32 2.32-2.27 2.27-2.32-2.32z" stroke="#000" stroke-opacity="0" stroke-width="1.96" fill="#76b900"/><use xlink:href="#j" transform="matrix(1,0,0,1,170,-208.74773169151) translate(23.111111111111114 17.77777777777778)"/><path d="M120-336a6 6 0 0 1 6-6h188a6 6 0 0 1 6 6v30a6 6 0 0 1-6 6H126a6 6 0 0 1-6-6z" stroke="#000" stroke-width="2" fill="#fff"/><use xlink:href="#k" transform="matrix(1,0,0,1,125,-337) translate(68.33333333333333 23.333333333333336)"/><path d="M-495.36 766.56c0-1.08-.24-1.8-.6-2.4-.48-.48-1.2-.72-1.92-.72h-2.16v6.12h2.4c.72 0 1.32-.24 1.68-.84.36-.48.6-1.2.6-2.16zm-4.68-6h1.68c.6 0 1.2-.24 1.56-.72.48-.48.6-1.2.6-2.16 0-.84-.12-1.56-.48-2.04-.36-.6-.84-.84-1.44-.84h-1.92v5.76zm5.4 1.08c1.08.36 1.92 1.08 2.52 1.92.6.84.84 1.92.84 3.12 0 1.8-.6 3.24-1.68 4.32-1.2.96-2.76 1.56-4.68 1.56H-504V751.8h6.24c1.56 0 3 .6 3.96 1.56 1.08 1.08 1.68 2.4 1.68 3.96 0 1.08-.24 1.92-.72 2.64-.36.72-.96 1.32-1.8 1.68zm-17.16.24c0-2.4-.36-4.08-.96-5.16s-1.56-1.68-2.88-1.68h-1.8v14.28h1.8c1.32 0 2.28-.6 2.88-1.68.6-1.08.96-2.88.96-5.16v-.6zm2.28-7.44c1.32 1.8 2.04 4.32 2.04 7.68 0 3.48-.72 6-2.04 7.8-1.32 1.68-3.12 2.64-5.64 2.64h-6.36V751.8h6.24c2.52 0 4.44.96 5.76 2.64zm-19.56 11.76c-.36-.12-.84-.24-1.44-.24s-1.08.24-1.32.6c-.36.36-.48.84-.48 1.56 0 .6.12 1.08.36 1.44.24.36.6.48.96.48.72 0 1.32-.36 1.92-.96v-2.88zm.24 4.92c-.24.6-.72.96-1.44 1.32-.6.36-1.2.48-1.92.48-1.2 0-2.16-.36-2.88-1.2-.72-.84-1.08-1.92-1.08-3.36s.48-2.64 1.32-3.48c.84-.84 2.04-1.32 3.48-1.32.6 0 1.44.12 2.28.36v-1.44c0-.96-.12-1.68-.36-2.04-.24-.36-.72-.6-1.44-.6-1.2 0-2.64.36-4.44.96v-2.64c.6-.36 1.32-.72 2.28-.96.96-.24 1.92-.24 2.88-.24 1.68 0 3 .36 3.72 1.08.72.84 1.2 2.04 1.2 3.84v10.68h-3.24l-.36-1.44zm-14.4 1.44h4.08v-15.24h-4.08v15.24zm3.72-21.72c-.36-.36-.96-.6-1.68-.6s-1.32.24-1.8.6c-.36.48-.6.96-.6 1.68s.24 1.32.6 1.68c.48.36 1.08.6 1.8.6s1.32-.24 1.68-.6c.48-.36.72-.96.72-1.68s-.24-1.2-.72-1.68zm-10.32 8.4l-.36-1.92h-3.36v15.24h4.08V761.4c.84-.48 1.8-.72 2.64-.72.6 0 1.08 0 1.68.12v-3.6c-.36 0-.72-.12-.96-.12-.72 0-1.32.24-1.92.6-.6.36-1.2.84-1.8 1.56zm-10.92 6.96c-.48-.12-.96-.24-1.56-.24-.6 0-.96.24-1.32.6-.36.36-.48.84-.48 1.56 0 .6.12 1.08.36 1.44.24.36.6.48 1.08.48.6 0 1.32-.36 1.92-.96v-2.88zm0-2.28v-1.44c0-.96-.12-1.68-.36-2.04-.36-.36-.84-.6-1.56-.6-1.2 0-2.64.36-4.32.96v-2.64c.48-.36 1.32-.72 2.16-.96.96-.24 1.92-.24 2.88-.24 1.8 0 3 .36 3.84 1.08.72.84 1.08 2.04 1.08 3.84v10.68h-3.12l-.36-1.44c-.36.6-.84.96-1.44 1.32-.6.36-1.32.48-1.92.48-1.32 0-2.28-.36-3-1.2-.72-.84-1.08-1.92-1.08-3.36s.48-2.64 1.32-3.48c.96-.84 2.04-1.32 3.6-1.32.6 0 1.32.12 2.28.36zm-10.32 8.64V751.8h-4.68l-4.2 11.64-4.32-11.64h-4.8v20.76h3.72v-14.4l3.48 9.24h3.6l3.48-9.36v14.52h3.72zm85.68 39v-9.6c-4.8 2.52-11.88 3.84-19.08 3.84-7.08 0-14.28-1.32-18.96-3.84v9.6c0 1.68 6.48 5.76 18.96 5.76 12.6 0 19.08-4.08 19.08-5.76zm0 16.68v-9.36c-4.8 2.52-11.88 3.96-19.08 3.96-7.08 0-14.28-1.44-18.96-3.96v9.36c0 1.68 6.48 5.76 18.96 5.76 12.6 0 19.08-4.08 19.08-5.76zm0 14.88v-7.56c-4.8 2.52-11.88 3.84-19.08 3.84-7.08 0-14.28-1.32-18.96-3.84v7.56c0 1.68 6.48 5.76 18.96 5.76 12.6 0 19.08-4.08 19.08-5.76zm-38.04-48.48c0 1.68 6.48 5.76 18.96 5.76 12.6 0 19.08-4.08 19.08-5.76 0-1.8-6.48-5.76-19.08-5.76-12.48 0-18.96 3.96-18.96 5.76zm43.44 0v48.48c0 7.32-12.24 11.28-24.48 11.28-12.12 0-24.48-3.96-24.48-11.28v-48.48c0-7.44 12.36-11.28 24.48-11.28 12.24 0 24.48 3.84 24.48 11.28zm-104.28 54.84h53.64V855h-53.64c-8.64 0-15.72-7.08-15.72-15.72v-88.56c0-8.64 7.08-15.72 15.72-15.72h88.32c8.64 0 15.6 7.08 15.6 15.72v34.68h-5.4v-34.68c0-5.64-4.56-10.2-10.2-10.2h-88.32c-5.64 0-10.32 4.56-10.32 10.2v88.56c0 5.64 4.68 10.2 10.32 10.2z" stroke="#000" stroke-opacity="0" fill="#c925d1"/><path d="M-840-153.5V-434a6 6 0 0 1 6-6H214a6 6 0 0 1 6 6v90.5" stroke="#f9c500" fill="none"/><path d="M-839.52-153h-.96v-.5h.96zM220.47-343h-.94v-.5h.94z" stroke="#f9c500" stroke-width=".05" fill="#f9c500"/><path d="M-940-146a6 6 0 0 1 6-6h188a6 6 0 0 1 6 6v30a6 6 0 0 1-6 6h-188a6 6 0 0 1-6-6z" stroke="#000" stroke-width="2" fill="#fff"/><use xlink:href="#k" transform="matrix(1,0,0,1,-935,-147) translate(68.33333333333333 23.333333333333336)"/><path d="M-740-146a6 6 0 0 1 6-6h188a6 6 0 0 1 6 6v30a6 6 0 0 1-6 6h-188a6 6 0 0 1-6-6z" stroke="#000" stroke-width="2" fill="#fff"/><use xlink:href="#l" transform="matrix(1,0,0,1,-735,-147) translate(68.33333333333333 23.333333333333336)"/><path d="M-940 16a6 6 0 0 1 6-6h188a6 6 0 0 1 6 6v30a6 6 0 0 1-6 6h-188a6 6 0 0 1-6-6z" stroke="#000" stroke-width="2" fill="#fff"/><use xlink:href="#m" transform="matrix(1,0,0,1,-935,15) translate(68.33333333333333 23.333333333333336)"/><path d="M-80-336a6 6 0 0 1 6-6h188a6 6 0 0 1 6 6v30a6 6 0 0 1-6 6H-74a6 6 0 0 1-6-6z" stroke="#000" stroke-width="2" fill="#fff"/><use xlink:href="#l" transform="matrix(1,0,0,1,-75,-337) translate(68.33333333333333 23.333333333333336)"/><path d="M-640-153.5V-377a6 6 0 0 1 6-6H14a6 6 0 0 1 6 6v33.5" stroke="#76b900" fill="none"/><path d="M-639.52-153h-.96v-.5h.96zM20.48-343h-.96v-.5h.96z" stroke="#76b900" stroke-width=".05" fill="#76b900"/><path d="M42.14-263.56V-233l-26.7 15.25v-9.52H14.1v9.52L-12.58-233v-30.56l7.98 5.35.7-1.13-8.03-5.36 26.7-15.3 26.7 15.25-8.1 5.42.72 1.12 8.04-5.37z" stroke="#000" stroke-opacity="0" stroke-width="3.14" fill="#666"/><path d="M12.42-234.78c0 .4-.4.78-.78.78H2.8c-.4 0-.78-.38-.78-.78v-8.9c0-.38.4-.77.78-.77h8.84c.38 0 .78.4.78.78v8.9zM12.42-250.16c0 .4-.4.8-.78.8H2.8c-.4 0-.78-.4-.78-.8v-8.9c0-.38.4-.77.78-.77h8.84c.38 0 .78.4.78.78v8.9zM27.52-238.34h-4.16v4.16H21.4v-4.16h-4.16v-2.1h4.16v-4h1.96v4h4.16v2.1zM27.52-250.16c0 .4-.4.8-.78.8H17.9c-.38 0-.77-.4-.77-.8v-8.9c.13-.38.4-.77.78-.77h8.84c.4 0 .78.4.78.78v8.9z" stroke="#000" stroke-opacity="0" stroke-width="3.14" fill="#fff"/><use xlink:href="#n" transform="matrix(1,0,0,1,-42.59089122690963,-208.74773169151007) translate(-26.203703703703695 17.77777777777778)"/><path d="M-740 386a6 6 0 0 1 6-6h388a6 6 0 0 1 6 6v38a6 6 0 0 1-6 6h-388a6 6 0 0 1-6-6z" stroke="#000" stroke-width="2" fill="#fff"/><use xlink:href="#o" transform="matrix(1,0,0,1,-735,384.9999999999999) translate(172.77777777777777 25.27777777777778)"/><path d="M-740 16a6 6 0 0 1 6-6h188a6 6 0 0 1 6 6v30a6 6 0 0 1-6 6h-188a6 6 0 0 1-6-6z" stroke="#000" stroke-width="2" fill="#fff"/><use xlink:href="#p" transform="matrix(1,0,0,1,-735,15) translate(68.33333333333333 23.333333333333336)"/><path d="M-540 551.5v183" stroke="#3a414a" fill="none"/><path d="M-539.52 551.5h-.96v-.5h.96zM-539.52 735h-.96v-.5h.96z" stroke="#3a414a" stroke-width=".05" fill="#3a414a"/><path d="M399.2 14.97c1.85-1.84 3.6-3.67 5.45-5.53.56-.63 1.28-1.3 1.84-1.95-.5-.74-1.3-1.28-2-1.57-1.37-.64-2.73-.43-4 .45-1.7 1.16-2.4 3-2.4 5.28.07.9.23 1.77.63 2.54l.48.77m2.1 1.74c.87.38 1.9.33 2.8.13.47-.23 1.67-.84 2.07-.75h.08l.08.05c.24.15.48.36.64.7.32.75.16 1.5-.48 1.92l-.17.16c-2.32 1.6-4.8 1.37-7.04-.1-1.13-.7-1.93-1.77-2.56-3.04l-.16-.3c-1.44-3.05-1.28-6.25.4-9.15.56-.98 1.27-1.78 2.15-2.37l.4-.22c2.16-1.5 4.48-1.4 6.72-.08 1.12.7 2.16 1.74 2.8 3.12l.08.25c.56 1-.08 1.87-.72 2.46-.8.7-1.5 1.54-2.23 2.27-1.68 1.65-3.28 3.33-4.88 4.98zm17.26-13.85h.24c.72 0 1.2.58 1.2 1.44 0 1.2-.96 1.5-1.76 1.5-1.12 0-2.16.78-2.88 1.67-.96 1.1-1.36 2.5-1.36 4.05v6.98c0 .82-.4 1.45-1.12 1.45h-.24c-.63 0-1.1-.63-1.1-1.45v-7.38c0-2.84 1.2-5.17 3.1-6.78 1.2-.97 2.48-1.5 3.92-1.5zM388.34 7.8c.96-1.1 1.84-2.24 2.8-3.35.32-.3 1.28-1.6 1.68-1.6h.48v.02c.56.13.96.54.96 1.24v.3c0 .48-.4 1.05-.72 1.4-.56.7-1.12 1.37-1.68 2.05l-2.96 3.54c1.28 1.5 2.56 3 3.76 4.52.4.43.72.86 1.04 1.27.16.15.32.33.4.56.16.18.16.4.16.63v.38c-.08.65-.48 1.17-1.04 1.17h-.24c-.4 0-.88-.54-1.12-.83-.56-.64-1.12-1.32-1.68-1.98l-1.84-2.17v3.5c0 .78-.4 1.44-1.12 1.44h-.16c-.72 0-1.12-.65-1.12-1.44V-1.17c0-.8.4-1.42 1.12-1.42h.16c.72 0 1.12.64 1.12 1.43V7.8zm-7.9-1.94c-.33-.2-1.05-.27-1.45-.3-2-.1-3.45 1.27-4.33 3.4-.32.73-.4 1.52-.4 2.34 0 2.47 1.04 4.2 2.88 5.25.72.4 1.6.46 2.32.46.64 0 1.6-.47 2.16-.8l.08-.05h.5v.02c.55.14 1.03.54 1.03 1.25v.3c0 1.76-2.72 2.14-3.76 2.23-3.68.3-6.4-2.08-7.44-6.2-.16-.7-.24-1.43-.24-2.18V11c0-3.12 1.35-5.62 3.6-7.2 1.03-.75 2.15-1.14 3.43-1.14h.48c1.3 0 2.5.46 3.52 1.32l.08.07.1.1c.06.24.23.5.23.78v.27c0 .75-.5 1.13-1.04 1.27l-.1.02h-.15c-.32-.03-1.12-.46-1.52-.64zm-22.08 5.48c0 2.2.88 3.8 2.48 4.97.72.53 1.52.78 2.4.78 1.76 0 3.12-1.1 4.08-2.95.48-.86.63-1.84.63-2.83 0-2.06-.8-3.6-2.23-4.74-.8-.63-1.6-.93-2.56-.93-2 0-3.52 1.23-4.4 3.38-.24.76-.4 1.53-.4 2.34zm4.56-8.6h.32c2.8 0 4.95 1.62 6.3 4.55.57 1.14.8 2.4.8 3.75v.6c0 3.12-1.26 5.6-3.5 7.2-1.04.72-2.24 1.1-3.44 1.1h-.48c-2.64 0-4.72-1.54-6.08-4.23-.56-1.25-.88-2.63-.88-4.08v-.6c0-3.12 1.28-5.6 3.52-7.2 1.04-.75 2.24-1.1 3.44-1.1zm-20.47 8.6c0 2.27.96 3.97 2.64 5.06.63.43 1.35.68 2.15.68 1.84 0 3.2-1.05 4.16-2.93.5-.88.65-1.83.65-2.85 0-1.97-.72-3.5-2.08-4.65-.8-.68-1.68-1.02-2.72-1.02-2 0-3.44 1.23-4.32 3.38-.32.76-.48 1.53-.48 2.34zm9.6-6.46v-6.1c0-.8.48-1.44 1.12-1.44h.23c.73 0 1.13.63 1.13 1.45v12.84c0 3.13-1.28 5.62-3.6 7.2-1.04.73-2.16 1.1-3.44 1.1h-.5c-2.63 0-4.7-1.53-6-4.22-.63-1.25-.95-2.63-.95-4.08v-.6c0-3.12 1.28-5.6 3.6-7.2 1.04-.75 2.16-1.1 3.36-1.1h.5c1.83 0 3.35.8 4.55 2.14zM386.12-42.93h7.2v8.7h3.6c1.67 0 3.42-.33 4.96-.98.77-.33 1.68-.77 2.45-1.3-1.05-1.57-1.54-3.57-1.68-5.5-.2-2.72.2-6.17 1.75-8.22l.77-1.03.84.8c2.32 2.17 4.2 5.2 4.5 8.65 2.72-.97 5.94-.7 8.32.92l1 .7-.5 1.2c-2.04 4.7-6.3 6.15-10.44 5.88-6.16 18.42-19.68 27.1-36 27.1-8.46 0-16.24-3.77-20.65-12.68l-.07-.16-.63-1.57c-1.47-3.95-1.96-8.22-1.68-12.54l.14-1.3h6.08v-8.7h7.14v-8.53h14.36V-60h8.54v17.07z" stroke="#000" stroke-opacity="0" fill="#394d54"/><path d="M409.35-39.72c.47-4.44-2.36-7.9-4.04-9.6-2 2.77-2.34 9.94.82 13-1.75 1.84-5.45 3.52-9.2 3.52h-45.88c-.34 4.7.33 9 1.95 12.7l.46 1.13c.34.67.74 1.3 1.14 1.92 1.9.17 3.57.2 5.18.17 3.16-.08 5.65-.54 7.6-1.34.27-.08.6.08.74.42.07.34-.07.7-.33.84-.28.12-.55.2-.82.3-1.55.5-3.16.87-5.3 1.04h-.15c-.07 0-.13 0-.2.04-.8.04-1.75.04-2.63.04-1 0-2 0-3.1-.08l-.06.04c3.84 5.1 9.82 8.17 17.3 8.17 15.86 0 29.3-8.4 35.23-27.16 4.24.5 8.34-.8 10.16-5.07-2.96-2.05-6.73-1.38-8.88-.1z" stroke="#000" stroke-opacity="0" fill="#00aada"/><path d="M409.33-39.73c.45-4.43-2.34-7.92-4.02-9.58-2 2.73-2.33 9.93.8 12.96-1.74 1.87-5.42 3.53-9.16 3.53h-43.17c-.17 7.16 2.07 12.64 6.03 15.92 3.13-.07 5.64-.54 7.6-1.34.28-.1.6.08.67.44.1.32 0 .68-.34.83-.22.1-.5.18-.78.28-1.5.5-3.3.9-5.42 1.08l-.05-.06c5.4 3.32 13.23 3.28 22.22-.83 10.06-4.56 19.38-13.35 25.9-23.37-.1.03-.15.1-.27.14z" stroke="#000" stroke-opacity="0" fill="#24b8eb"/><path d="M351.15-27.1c.27 2.5.92 4.85 1.84 7l.47 1.12c.33.67.7 1.32 1.08 1.93 1.9.16 3.67.2 5.23.16 3.13-.07 5.66-.5 7.6-1.3.27-.13.6.05.7.4.1.34-.05.7-.32.83-.27.12-.54.22-.8.3-1.52.53-3.3.9-5.4 1.04-.05.02-.2.02-.27.02-.82.05-1.73.07-2.65.07-.97 0-2-.02-3.13-.08 3.83 5.1 9.87 8.2 17.37 8.2 13.52 0 25.33-6.16 32.18-19.7h-53.93z" stroke="#000" stroke-opacity="0" fill="#008bb8"/><path d="M354.2-27.1c.8 4.4 2.77 7.85 5.6 10.2 3.1-.06 5.64-.5 7.57-1.3.3-.12.63.06.7.4.1.34-.03.7-.3.84l-.8.3c-1.53.52-3.37.9-5.47 1.04 5.42 3.3 13.22 3.24 22.18-.86 5.42-2.47 10.62-6.17 15.32-10.63h-44.8z" stroke="#000" stroke-opacity="0" fill="#039bc6"/><path d="M362.5-40.9h.48v6.16h-.5v-6.17zm-.96 0h.5v6.16h-.5v-6.17zm-.93 0h.52v6.16h-.5v-6.17zm-.93 0h.5v6.16h-.5v-6.17zm-.95 0h.52v6.16h-.52v-6.17zm-.9 0h.48v6.16h-.5v-6.17zm-.53-.62h6.2v7.4h-6.2v-7.4zM369.64-49.44h.5v6.16h-.5v-6.16zm-.94 0h.5v6.16h-.5v-6.16zm-.94 0h.5v6.16h-.5v-6.16zm-.94 0h.5v6.16h-.5v-6.16zm-.94 0h.5v6.16h-.5v-6.16zm-.92 0h.5v6.16h-.5v-6.16zm-.5-.6h6.2v7.38h-6.22v-7.4z" stroke="#000" stroke-opacity="0" fill="#00acd3"/><path d="M369.64-40.9h.5v6.16h-.5v-6.17zm-.94 0h.5v6.16h-.5v-6.17zm-.94 0h.5v6.16h-.5v-6.17zm-.94 0h.5v6.16h-.5v-6.17zm-.94 0h.5v6.16h-.5v-6.17zm-.92 0h.5v6.16h-.5v-6.17zm-.5-.62h6.2v7.4h-6.22v-7.4z" stroke="#000" stroke-opacity="0" fill="#20c2ef"/><path d="M376.8-40.9h.5v6.16h-.5v-6.17zm-.95 0h.5v6.16h-.5v-6.17zm-.93 0h.5v6.16h-.5v-6.17zm-.94 0h.5v6.16h-.5v-6.17zm-.94 0h.5v6.16h-.5v-6.17zm-.93 0h.5v6.16h-.5v-6.17zm-.5-.62h6.2v7.4h-6.2v-7.4z" stroke="#000" stroke-opacity="0" fill="#00acd3"/><path d="M376.8-49.44h.5v6.16h-.5v-6.16zm-.95 0h.5v6.16h-.5v-6.16zm-.93 0h.5v6.16h-.5v-6.16zm-.94 0h.5v6.16h-.5v-6.16zm-.94 0h.5v6.16h-.5v-6.16zm-.93 0h.5v6.16h-.5v-6.16zm-.5-.6h6.2v7.38h-6.2v-7.4zM383.95-40.9h.5v6.16h-.5v-6.17zm-.94 0h.52v6.16h-.5v-6.17zm-.93 0h.5v6.16h-.5v-6.17zm-.94 0h.5v6.16h-.5v-6.17zm-.94 0h.5v6.16h-.5v-6.17zm-.93 0h.5v6.16h-.5v-6.17zm-.52-.62h6.2v7.4h-6.2v-7.4z" stroke="#000" stroke-opacity="0" fill="#20c2ef"/><path d="M383.95-49.44h.5v6.16h-.5v-6.16zm-.94 0h.52v6.16h-.5v-6.16zm-.93 0h.5v6.16h-.5v-6.16zm-.94 0h.5v6.16h-.5v-6.16zm-.94 0h.5v6.16h-.5v-6.16zm-.93 0h.5v6.16h-.5v-6.16zm-.52-.6h6.2v7.38h-6.2v-7.4z" stroke="#000" stroke-opacity="0" fill="#00acd3"/><path d="M383.95-57.97h.5v6.17h-.5v-6.17zm-.94 0h.52v6.17h-.5v-6.17zm-.93 0h.5v6.17h-.5v-6.17zm-.94 0h.5v6.17h-.5v-6.17zm-.94 0h.5v6.17h-.5v-6.17zm-.93 0h.5v6.17h-.5v-6.17zm-.52-.6h6.2v7.38h-6.2v-7.38z" stroke="#000" stroke-opacity="0" fill="#20c2ef"/><path d="M391.1-40.9h.5v6.16h-.5v-6.17zm-.94 0h.5v6.16h-.5v-6.17zm-.93 0h.5v6.16h-.5v-6.17zm-.95 0h.5v6.16h-.5v-6.17zm-.93 0h.5v6.16h-.5v-6.17zm-.93 0h.5v6.16h-.5v-6.17zm-.5-.62h6.2v7.4h-6.2v-7.4z" stroke="#000" stroke-opacity="0" fill="#00acd3"/><path d="M370.26-22.15c.94 0 1.7.9 1.7 2.04 0 1.12-.76 2.03-1.7 2.03-.95 0-1.7-.9-1.7-2.04 0-1.14.75-2.05 1.7-2.05" stroke="#000" stroke-opacity="0" fill="#d4edf1"/><path d="M370.26-21.57c.15 0 .3.03.44.1-.15.1-.25.3-.25.52 0 .32.22.6.5.6.2 0 .36-.14.44-.32.05.17.08.36.08.56 0 .8-.55 1.45-1.22 1.45-.68 0-1.23-.65-1.23-1.46 0-.82.55-1.47 1.23-1.47M340-26.38H419.58c-1.75-.52-5.5-1.23-4.86-3.93-3.18 4.33-10.74 3.04-12.65.9-2.15 3.7-14.56 2.28-15.44-.6-2.7 3.75-10.98 3.75-13.7 0-.86 2.88-13.27 4.3-15.42.6-1.9 2.13-9.46 3.43-12.65-.9.64 2.7-3.1 3.4-4.85 3.93" stroke="#000" stroke-opacity="0" fill="#394d54"/><path d="M374.8-7.46c-4.24-2.4-6.55-5.65-7.86-9.2-1.57.53-3.46.87-5.66 1.02-.82.06-1.7.08-2.6.08-1.06 0-2.17-.03-3.34-.1 3.9 4.62 8.66 8.18 17.52 8.25.64 0 1.3-.02 1.94-.06z" stroke="#000" stroke-opacity="0" fill="#bfdbe0"/><path d="M368.52-13.38c-.58-.95-1.15-2.14-1.57-3.3-1.57.55-3.46.9-5.66 1.04 1.5.98 3.65 1.88 7.22 2.26z" stroke="#000" stroke-opacity="0" fill="#d4edf1"/><path d="M395.2 124h-30.4c-2.08 0-3.84 1.6-3.84 3.5V195h38.08v-67.5c0-1.9-1.68-3.5-3.84-3.5zm-1.84 64.07h-26.72v-3.5h26.72v3.5zm0-6.93h-26.72v-3.5h26.72v3.5zm0-43.3h-26.72v-3.4h26.72v3.4z" stroke="#000" stroke-opacity="0" fill="#2a3282"/><path d="M416.16 105h-30.4c-2.16 0-3.84 1.53-3.84 3.5v12.07h13.36c4.16 0 7.6 3.15 7.6 6.93v31.14h11.36v3.5h-11.36v3.43h11.36v3.5h-11.36v6.94H420v-67.58c0-1.9-1.68-3.42-3.84-3.42zm-1.92 13.86H387.6v-3.5h26.72v3.5h-.08zM357.12 169.08h-11.44v-3.5h11.44v-3.52h-11.44v-3.42h11.44V127.5c0-3.78 3.44-6.93 7.6-6.93h13.36V108.5c0-1.97-1.68-3.5-3.84-3.5h-30.4c-2.08 0-3.84 1.53-3.84 3.5V176h17.12v-7zm-11.44-53.73h26.72v3.5h-26.72v-3.5z" stroke="#000" stroke-opacity="0" fill="#2a3282"/><path d="M-640 53.5V209a6 6 0 0 0 6 6h88a6 6 0 0 1 6 6v157.5" stroke="#c925d1" fill="none"/><path d="M-639.52 53.5h-.96V53h.96zM-539.52 379h-.96v-.5h.96z" stroke="#c925d1" stroke-width=".05" fill="#c925d1"/><path d="M-1120 436a6 6 0 0 1 6-6h368a6 6 0 0 1 6 6v108a6 6 0 0 1-6 6h-368a6 6 0 0 1-6-6z" stroke="#000" stroke-width="2" fill="#fff"/><use xlink:href="#q" transform="matrix(1,0,0,1,-1115,434.9999999999999) translate(112.92592592592591 62.70138888888889)"/><path d="M-1120 386a6 6 0 0 1 6-6h368a6 6 0 0 1 6 6v38a6 6 0 0 1-6 6h-368a6 6 0 0 1-6-6z" stroke="#000" stroke-width="2" fill="#fff"/><use xlink:href="#r" transform="matrix(1,0,0,1,-1115,384.9999999999999) translate(162.77777777777777 25.27777777777778)"/><path d="M-840 53.5V210a6 6 0 0 1-6 6h-78a6 6 0 0 0-6 6v156.5" stroke="#1071e5" fill="none"/><path d="M-839.52 53.5h-.96V53h.96zM-929.52 379h-.96v-.5h.96z" stroke="#1071e5" stroke-width=".05" fill="#1071e5"/><path d="M-1761.88 351.75v6.9h-4.9v2.3h7.17v-9.2h-2.28zm1.1 15.95c-4.88 0-8.87-4-8.87-8.9s4-8.9 8.88-8.9c4.94 0 8.87 4 8.87 8.9s-3.93 8.9-8.87 8.9zm0-20.1c-6.14 0-11.14 5.05-11.14 11.2 0 6.2 5 11.2 11.15 11.2 6.2 0 11.2-5 11.2-11.2 0-6.15-5-11.2-11.2-11.2zm-36.9 14.05h23.9v2.3h-25.06c-.66 0-1.16-.5-1.16-1.15v-5h2.32v3.85zm40.5-32.9c.95 0 1.7.75 1.7 1.7 0 .9-.75 1.65-1.7 1.65-.92 0-1.68-.75-1.68-1.65 0-.95.76-1.7 1.67-1.7zm0 5.65c2.2 0 3.97-1.75 3.97-3.95s-1.77-4-4-4c-2.16 0-3.93 1.8-3.93 4s1.77 3.95 3.94 3.95zm-28.5-5.65h16.84c.5 0 .96-.3 1.1-.8 1.07-3.4 4.2-5.65 7.72-5.65 4.5 0 8.12 3.65 8.12 8.15 0 4.45-3.63 8.1-8.12 8.1-3.53 0-6.65-2.25-7.7-5.65-.16-.45-.62-.8-1.12-.8h-2.82c-.3 0-.6.15-.8.35l-1.62 1.6-1.62-1.6c-.2-.2-.5-.35-.8-.35h-1.62c-.3 0-.6.15-.8.35l-1.62 1.6-1.6-1.6c-.2-.2-.5-.35-.82-.35h-2l-2.03-1.8 1.32-1.55zm-.45 5.4c.2.15.45.25.75.25h1.92l2.12 2.1c.45.45 1.15.45 1.6 0l2.08-2.1h.65l2.1 2.1c.4.45 1.17.45 1.62 0l2.07-2.1h1.55c1.62 3.9 5.4 6.45 9.63 6.45 5.75 0 10.44-4.65 10.44-10.4s-4.7-10.45-10.44-10.45c-4.23 0-8 2.55-9.63 6.45h-16.53c-.36 0-.66.15-.86.4l-2.42 2.85c-.4.45-.36 1.2.1 1.6l3.23 2.85zM-1800 348c0-5.75 4.7-10.45 10.4-10.45 4.27 0 8.05 2.6 9.67 6.5h1.56l2.07-2.1c.45-.45 1.2-.45 1.6 0l2.13 2.1h.65l2.07-2.1c.45-.45 1.16-.45 1.62 0l2.1 2.1h1.93c.3 0 .55.1.76.25l.95.8-1.5 1.75-.6-.5h-2.02c-.3 0-.6-.15-.8-.35l-1.62-1.6-1.62 1.6c-.2.2-.5.35-.8.35h-1.62c-.3 0-.6-.15-.8-.35l-1.62-1.6-1.6 1.6c-.2.2-.5.35-.82.35h-2.82c-.5 0-.96-.35-1.1-.85-1.07-3.35-4.2-5.65-7.77-5.65-4.45 0-8.08 3.65-8.08 8.15s3.63 8.15 8.07 8.15c3.57 0 6.7-2.3 7.75-5.65.15-.5.6-.8 1.1-.8h9.7v2.3h-8.88c-1.62 3.9-5.4 6.45-9.68 6.45-5.7 0-10.4-4.7-10.4-10.45zm7.6 1.7c-.94 0-1.7-.75-1.7-1.7 0-.9.75-1.65 1.7-1.65.92 0 1.68.75 1.68 1.65 0 .95-.76 1.7-1.67 1.7zm0-5.65c-2.2 0-3.97 1.75-3.97 3.95s1.76 4 3.98 4c2.18 0 3.95-1.8 3.95-4s-1.77-3.95-3.94-3.95z" stroke="#000" stroke-opacity="0" fill="#dd344c"/><use xlink:href="#s" transform="matrix(1,0,0,1,-1830,379) translate(3.7407407407407405 17.77777777777778)"/><path d="M-290 765a6 6 0 0 1 6-6h388a6 6 0 0 1 6 6v108a6 6 0 0 1-6 6h-388a6 6 0 0 1-6-6z" stroke="#000" stroke-width="2" fill="#fff"/><use xlink:href="#t" transform="matrix(1,0,0,1,-285,764.0000499999979) translate(143.23456790123456 62.70138888888889)"/><path d="M-61 436a6 6 0 0 1 6-6h388a6 6 0 0 1 6 6v108a6 6 0 0 1-6 6H-55a6 6 0 0 1-6-6z" stroke="#000" stroke-width="2" fill="#fff"/><use xlink:href="#u" transform="matrix(1,0,0,1,-55.99997592593354,434.9999999999999) translate(110.87037037037037 62.70138888888889)"/><path d="M-121 436a6 6 0 0 1 6-6h48a6 6 0 0 1 6 6v108a6 6 0 0 1-6 6h-48a6 6 0 0 1-6-6z" stroke="#000" stroke-width="2" fill="#fff"/><use xlink:href="#v" transform="matrix(1,0,0,1,-115.99997592593354,434.9999999999999) translate(-1.6666666666666714 60.333333333333336)"/><path d="M-122.5 490H-214a6 6 0 0 1-6-6V321.3a6 6 0 0 0-6-6h-313.5" stroke="#cc4e00" fill="none"/><path d="M-122 490.48h-.5v-.96h.5z" stroke="#cc4e00" stroke-width=".05" fill="#cc4e00"/><path d="M-539.5 315.3h-.5" stroke="#cc4e00" fill="none"/><path d="M-479.5 812.67h188" stroke="#3a414a" fill="none"/><path d="M-479.5 813.14h-.5v-.95h.5zM-291 813.14h-.5v-.95h.5z" stroke="#3a414a" stroke-width=".05" fill="#3a414a"/><path d="M-30.08 670.92c-1.52 0-2.72-1.24-2.72-2.72 0-1.52 1.2-2.76 2.72-2.76 1.48 0 2.72 1.24 2.72 2.76 0 1.48-1.24 2.72-2.72 2.72zm0-7.28c-1.2 0-2.32.48-3.12 1.24l-3.8-3.04-24-.04v1.84h23.36l3.4 2.72c-.24.56-.4 1.16-.4 1.84 0 2.48 2.04 4.52 4.56 4.52 2.48 0 4.52-2.04 4.52-4.52 0-2.52-2.04-4.56-4.52-4.56zm-8.2-21.84c1.52 0 2.72 1.24 2.72 2.76 0 1.48-1.2 2.72-2.72 2.72-1.48 0-2.72-1.24-2.72-2.72 0-1.52 1.24-2.76 2.72-2.76zm-3.28 5.88c.84.84 2 1.4 3.28 1.4 2.52 0 4.56-2.04 4.56-4.52 0-2.52-2.04-4.56-4.56-4.56-2.48 0-4.52 2.04-4.52 4.56 0 .52.08 1.04.28 1.56l-2.32 1.16H-61v1.8h16.56l2.88-1.4zm-3.08 30.12l-3.24-3.24 3.24-3.28 3.28 3.28-3.28 3.24zm.64-8.44c-.36-.36-.92-.36-1.28 0l-1.64 1.64-1.88-1.92H-61v1.84h11.44l1.36 1.36-1.64 1.64c-.32.32-.32.92 0 1.28l4.56 4.52c.16.2.4.28.64.28s.48-.08.64-.28l4.56-4.52c.36-.36.36-.96 0-1.28l-4.56-4.56zm15.72-11.16v-5.48h5.48v5.48h-5.48zm6.36-7.28h-7.28c-.48 0-.88.4-.88.88v2.76H-61v1.8h30.92v2.72c0 .52.4.92.88.92h7.28c.52 0 .92-.4.92-.92v-7.28c0-.48-.4-.88-.92-.88zM-374.08 789.92c-1.52 0-2.72-1.24-2.72-2.72 0-1.52 1.2-2.76 2.72-2.76 1.48 0 2.72 1.24 2.72 2.76 0 1.48-1.24 2.72-2.72 2.72zm0-7.28c-1.2 0-2.32.48-3.12 1.24l-3.8-3.04-24-.04v1.84h23.36l3.4 2.72c-.24.56-.4 1.16-.4 1.84 0 2.48 2.04 4.52 4.56 4.52 2.48 0 4.52-2.04 4.52-4.52 0-2.52-2.04-4.56-4.52-4.56zm-8.2-21.84c1.52 0 2.72 1.24 2.72 2.76 0 1.48-1.2 2.72-2.72 2.72-1.48 0-2.72-1.24-2.72-2.72 0-1.52 1.24-2.76 2.72-2.76zm-3.28 5.88c.84.84 2 1.4 3.28 1.4 2.52 0 4.56-2.04 4.56-4.52 0-2.52-2.04-4.56-4.56-4.56-2.48 0-4.52 2.04-4.52 4.56 0 .52.08 1.04.28 1.56l-2.32 1.16H-405v1.8h16.56l2.88-1.4zm-3.08 30.12l-3.24-3.24 3.24-3.28 3.28 3.28-3.28 3.24zm.64-8.44c-.36-.36-.92-.36-1.28 0l-1.64 1.64-1.88-1.92H-405v1.84h11.44l1.36 1.36-1.64 1.64c-.32.32-.32.92 0 1.28l4.56 4.52c.16.2.4.28.64.28s.48-.08.64-.28l4.56-4.52c.36-.36.36-.96 0-1.28l-4.56-4.56zm15.72-11.16v-5.48h5.48v5.48h-5.48zm6.36-7.28h-7.28c-.48 0-.88.4-.88.88v2.76H-405v1.8h30.92v2.72c0 .52.4.92.88.92h7.28c.52 0 .92-.4.92-.92v-7.28c0-.48-.4-.88-.92-.88z" stroke="#000" stroke-opacity="0" fill="#232f3e"/><path d="M-91 551.5v39a.5.5 0 0 0 .5.5.5.5 0 0 1 .5.5v166" stroke="#3a414a" fill="none"/><path d="M-90.53 551.5h-.94v-.5h.94zM-89.53 758h-.94v-.5h.94z" stroke="#3a414a" stroke-width=".05" fill="#3a414a"/><path d="M-1519.5 405h398" stroke="#000" fill="none"/><path d="M-1519.5 405.48h-.52l.02-.48-.02-.48h.53zM-1121 405.48h-.5v-.96h.5z" stroke="#000" stroke-width=".05"/><path d="M-1352.07 345c0 12.67-10.27 22.94-22.92 22.94-12.64 0-22.9-10.27-22.9-22.93 0-12.64 10.26-22.92 22.9-22.92 12.66 0 22.93 10.28 22.93 22.93z" stroke="#000" stroke-opacity="0" stroke-width="9.38" fill="#fff"/><path d="M-1375 320c-13.8 0-25 11.2-25 25s11.2 25 25 25 25-11.2 25-25-11.2-25-25-25zm0 47.9c-12.65 0-22.9-10.25-22.9-22.9 0-12.65 10.25-22.9 22.9-22.9 12.65 0 22.9 10.25 22.9 22.9 0 12.65-10.25 22.9-22.9 22.9z" stroke="#000" stroke-opacity="0" stroke-width="9.38" fill="#020302"/><path d="M-1365.08 341.86v-6.2c0-5.76-4.42-10.46-9.9-10.46-5.46 0-9.9 4.7-9.9 10.46v6.2h-3.12v13l1.8 6.8h22.45l1.77-6.64.03-13.16h-3.13zm-3.12 0h-13.55v-6.2c0-4.05 3.05-7.33 6.78-7.33 3.72 0 6.77 3.3 6.77 7.33v6.2z" stroke="#000" stroke-opacity="0" stroke-width="9.38" fill="#020302"/><use xlink:href="#w" transform="matrix(1,0,0,1,-1430,379) translate(33.45679012345679 17.77777777777778)"/><path d="M-881.65 150c0 10.13-8.22 18.35-18.34 18.35s-18.33-8.22-18.33-18.34 8.2-18.33 18.34-18.33c10.13 0 18.35 8.2 18.35 18.34z" stroke="#000" stroke-opacity="0" stroke-width="9.38"/><path d="M-900 130c-11.04 0-20 8.96-20 20s8.96 20 20 20 20-8.96 20-20-8.96-20-20-20zm0 38.32c-10.12 0-18.32-8.2-18.32-18.32 0-10.12 8.2-18.32 18.32-18.32 10.12 0 18.32 8.2 18.32 18.32 0 10.12-8.2 18.32-18.32 18.32z" stroke="#000" stroke-opacity="0" stroke-width="9.38" fill="#fff"/><path d="M-892.06 147.5v-4.97c0-4.6-3.54-8.37-7.92-8.37s-7.92 3.76-7.92 8.37v4.96h-2.5v10.4l1.44 5.42H-891l1.42-5.3.02-10.53h-2.5zm-2.5 0h-10.84v-4.97c0-3.24 2.44-5.86 5.42-5.86s5.42 2.62 5.42 5.86v4.96z" stroke="#000" stroke-opacity="0" stroke-width="9.38" fill="#fff"/><use xlink:href="#x" transform="matrix(1,0,0,1,-950,179) translate(9.382716049382715 17.77777777777778)"/><path d="M-561.65 150c0 10.13-8.22 18.35-18.34 18.35s-18.33-8.22-18.33-18.34 8.2-18.33 18.34-18.33c10.13 0 18.35 8.2 18.35 18.34z" stroke="#000" stroke-opacity="0" stroke-width="9.38"/><path d="M-580 130c-11.04 0-20 8.96-20 20s8.96 20 20 20 20-8.96 20-20-8.96-20-20-20zm0 38.32c-10.12 0-18.32-8.2-18.32-18.32 0-10.12 8.2-18.32 18.32-18.32 10.12 0 18.32 8.2 18.32 18.32 0 10.12-8.2 18.32-18.32 18.32z" stroke="#000" stroke-opacity="0" stroke-width="9.38" fill="#fff"/><path d="M-572.06 147.5v-4.97c0-4.6-3.54-8.37-7.92-8.37s-7.92 3.76-7.92 8.37v4.96h-2.5v10.4l1.44 5.42H-571l1.42-5.3.02-10.53h-2.5zm-2.5 0h-10.84v-4.97c0-3.24 2.44-5.86 5.42-5.86s5.42 2.62 5.42 5.86v4.96z" stroke="#000" stroke-opacity="0" stroke-width="9.38" fill="#fff"/><use xlink:href="#x" transform="matrix(1,0,0,1,-630,179) translate(9.382716049382715 17.77777777777778)"/><path d="M-281.65-500c0 10.13-8.22 18.35-18.34 18.35s-18.33-8.22-18.33-18.34 8.2-18.33 18.34-18.33c10.13 0 18.35 8.2 18.35 18.34z" stroke="#000" stroke-opacity="0" stroke-width="9.38"/><path d="M-300-520c-11.04 0-20 8.96-20 20s8.96 20 20 20 20-8.96 20-20-8.96-20-20-20zm0 38.32c-10.12 0-18.32-8.2-18.32-18.32 0-10.12 8.2-18.32 18.32-18.32 10.12 0 18.32 8.2 18.32 18.32 0 10.12-8.2 18.32-18.32 18.32z" stroke="#000" stroke-opacity="0" stroke-width="9.38" fill="#fff"/><path d="M-292.06-502.5v-4.97c0-4.6-3.54-8.37-7.92-8.37s-7.92 3.76-7.92 8.37v4.96h-2.5v10.4l1.44 5.42H-291l1.42-5.3.02-10.53h-2.5zm-2.5 0h-10.84v-4.97c0-3.24 2.44-5.86 5.42-5.86s5.42 2.62 5.42 5.86v4.96z" stroke="#000" stroke-opacity="0" stroke-width="9.38" fill="#fff"/><use xlink:href="#x" transform="matrix(1,0,0,1,-350,-471) translate(9.382716049382715 17.77777777777778)"/><path d="M-281.65-330c0 10.13-8.22 18.35-18.34 18.35s-18.33-8.22-18.33-18.34 8.2-18.33 18.34-18.33c10.13 0 18.35 8.2 18.35 18.34z" stroke="#000" stroke-opacity="0" stroke-width="9.38"/><path d="M-300-350c-11.04 0-20 8.96-20 20s8.96 20 20 20 20-8.96 20-20-8.96-20-20-20zm0 38.32c-10.12 0-18.32-8.2-18.32-18.32 0-10.12 8.2-18.32 18.32-18.32 10.12 0 18.32 8.2 18.32 18.32 0 10.12-8.2 18.32-18.32 18.32z" stroke="#000" stroke-opacity="0" stroke-width="9.38" fill="#fff"/><path d="M-292.06-332.5v-4.97c0-4.6-3.54-8.37-7.92-8.37s-7.92 3.76-7.92 8.37v4.96h-2.5v10.4l1.44 5.42H-291l1.42-5.3.02-10.53h-2.5zm-2.5 0h-10.84v-4.97c0-3.24 2.44-5.86 5.42-5.86s5.42 2.62 5.42 5.86v4.96z" stroke="#000" stroke-opacity="0" stroke-width="9.38" fill="#fff"/><use xlink:href="#x" transform="matrix(1,0,0,1,-350,-301) translate(9.382716049382715 17.77777777777778)"/><path d="M-2087.1 378.16l51.44-29.15v-58.14l-51.45 29.07v58.23z" fill="#fff"/><path d="M-2138.45 348.98l51.38 29.12v-58.15l-51.38-29.04V349zM-2036 290.9l-51.07-28.9-51.05 28.9 51.05 28.87 51.06-28.88z" fill="#fff"/><path d="M-2087.07 318.06l48.08-27.17-.04-.04-48.03 27.2z" fill="#fff"/><path d="M-2135.1 290.86l-.06.03 48.1 27.16-48.05-27.2z" fill="#fff"/><path d="M-2035.8 289.04l-51.3-29.04-51.3 29.04-1.6.96v60l51.4 29.04 1.6.96 1.6-.96L-2034 350v-60zm-1.6 59.04l-48 27.24v-54.48l48.1-27.12zm-51.3 27.24l-48.12-27.24v-54.36l48.12 27.12zm-46.42-84.48l48-27.12 48.14 27.12-48.13 27.24-48.02-27.24z" fill="#444"/><path d="M-2086.86 351.33l27.63-15.64v-31.22l-27.63 15.6v31.25zM-2114.92 335.7l27.63 15.63v-31.25l-27.62-15.6v31.2zM-2059.53 304.06l-27.54-15.56-27.55 15.56 27.55 15.63 27.55-15.64z" fill="#ee472a"/><path d="M-2087.07 318.1l24.77-14-.03-.04-24.74 14.02zM-2111.83 304.06l-.03.03 24.78 14v-.02l-24.75-14.02z" fill="#96bf3d"/><path d="M-2059.05 302.17l-28-15.8-28.08 15.8-1.6.94v33.7l28 15.86 1.67.94 1.6-.94 28.08-15.87V303.1zm-1.6 32.74l-24.8 14.06v-28.1l24.8-13.98zm-28.07 14.06l-24.8-14.05V306.9l24.8 13.98zm-23.1-44.9l24.76-14 24.75 14-24.76 14.05-24.8-13.98z" fill="#fff"/><use xlink:href="#y" transform="matrix(1,0,0,1,-2140,380) translate(25.432098765432098 24.888888888888893)"/><path d="M-2087.1 558.16l51.44-29.15v-58.14l-51.45 29.07v58.23z" fill="#fff"/><path d="M-2138.45 528.98l51.38 29.12v-58.15l-51.38-29.04V529zM-2036 470.9l-51.07-28.9-51.05 28.9 51.05 28.87 51.06-28.88z" fill="#fff"/><path d="M-2087.07 498.06l48.08-27.17-.04-.04-48.03 27.2z" fill="#fff"/><path d="M-2135.1 470.86l-.06.03 48.1 27.16-48.05-27.2z" fill="#fff"/><path d="M-2035.8 469.04l-51.3-29.04-51.3 29.04-1.6.96v60l51.4 29.04 1.6.96 1.6-.96L-2034 530v-60zm-1.6 59.04l-48 27.24v-54.48l48.1-27.12zm-51.3 27.24l-48.12-27.24v-54.36l48.12 27.12zm-46.42-84.48l48-27.12 48.14 27.12-48.13 27.24-48.02-27.24z" fill="#444"/><path d="M-2086.86 531.33l27.63-15.65v-31.2l-27.63 15.6v31.25zM-2114.92 515.68l27.63 15.65v-31.25l-27.62-15.6v31.2zM-2059.53 484.06l-27.54-15.56-27.55 15.56 27.55 15.63 27.55-15.64z" fill="#ffd44f"/><path d="M-2087.07 498.1l24.77-14-.03-.04-24.74 14.02zM-2111.83 484.06l-.03.03 24.78 14v-.02l-24.75-14.02z" fill="#96bf3d"/><path d="M-2059.05 482.17l-28-15.8-28.08 15.8-1.6.94v33.7l28 15.86 1.67.94 1.6-.94 28.08-15.87V483.1zm-1.6 32.74l-24.8 14.06v-28.1l24.8-13.98zm-28.07 14.06l-24.8-14.05V486.9l24.8 13.98zm-23.1-44.9l24.76-14 24.75 14-24.76 14.05-24.8-13.98z" fill="#fff"/><use xlink:href="#z" transform="matrix(1,0,0,1,-2140,560) translate(8.925925925925924 24.888888888888893)"/><path d="M-2033.5 330h180.5a6 6 0 0 1 6 6v63a6 6 0 0 0 6 6h164.62" stroke="#979ea8" fill="none"/><path d="M-2033.5 330.48h-.5v-.96h.5z" stroke="#979ea8" stroke-width=".05" fill="#979ea8"/><path d="M-1661.62 405l-14.26 4.63v-9.26z" stroke="#979ea8" fill="#979ea8"/><path d="M-2033.5 510h180.5a6 6 0 0 0 6-6v-93a6 6 0 0 1 6-6h164.62" stroke="#979ea8" fill="none"/><path d="M-2033.5 510.48h-.5v-.96h.5z" stroke="#979ea8" stroke-width=".05" fill="#979ea8"/><path d="M-1661.62 405l-14.26 4.63v-9.26z" stroke="#979ea8" fill="#979ea8"/><defs><path d="M41-130c7 48 86 23 86 84 0 56-69 57-112 41v-40c20 0 9 29 31 31 35 19 77-26 41-50-27-18-72-13-72-59 0-50 58-52 100-41v36c-19 1-8-25-28-25-21-7-50-1-46 23" id="A"/><path d="M45-84c0 64 52 80 104 63 1 25-30 25-55 25-56 0-80-32-80-88 0-76 62-98 131-80v46h-10c-5-15-4-31-23-35-47-10-67 21-67 69" id="B"/><path d="M32-163c41-10 102-14 102 39v112c8 3 24-2 21 12h-45l-4-17C83 13 3 13 13-46c-2-50 45-50 92-51 4-36-5-70-42-56-6 2-12 4-16 6-4 7 0 23-15 20v-36zM42-47c0 41 41 33 63 22v-59c-34 1-63-1-63 37" id="C"/><path d="M65-12l28 4v8H7v-8l28-4v-226l-28-4v-8h58v238" id="D"/><path d="M84-170c49 0 66 33 63 87H46c-8 60 38 80 95 63v10C128-2 108 4 88 4 34 4 14-29 14-84c-1-54 22-86 70-86zm33 73c12-57-57-82-69-24-1 7-2 15-2 24h71" id="E"/><path d="M13-71v-27h94v27H13" id="F"/><path d="M90-170c52 0 76 32 76 87 0 54-24 87-77 87-51 0-75-34-75-87 0-54 24-87 76-87zM89-10c39 0 46-35 46-73 0-39-7-73-46-73-39 1-44 34-44 73s6 72 44 73" id="G"/><path d="M124-13C89 8 26 15 26-45v-108c-8-3-24 2-21-12h50v118c-3 37 42 32 69 25v-131l-25-4v-8h54v153c8 3 24-2 21 12h-48" id="H"/><path d="M54-38c-1 25 24 26 44 20v12C71 10 25 9 25-35v-115H4c-2-14 14-10 21-15l18-38h11v38h38v15H54v112" id="I"/><g id="a"><use transform="matrix(0.06172839506172839,0,0,0.06172839506172839,0,0)" xlink:href="#A"/><use transform="matrix(0.06172839506172839,0,0,0.06172839506172839,8.641975308641975,0)" xlink:href="#B"/><use transform="matrix(0.06172839506172839,0,0,0.06172839506172839,18.45679012345679,0)" xlink:href="#C"/><use transform="matrix(0.06172839506172839,0,0,0.06172839506172839,28.271604938271608,0)" xlink:href="#D"/><use transform="matrix(0.06172839506172839,0,0,0.06172839506172839,34.44444444444445,0)" xlink:href="#E"/><use transform="matrix(0.06172839506172839,0,0,0.06172839506172839,44.25925925925927,0)" xlink:href="#F"/><use transform="matrix(0.06172839506172839,0,0,0.06172839506172839,51.604938271604944,0)" xlink:href="#G"/><use transform="matrix(0.06172839506172839,0,0,0.06172839506172839,62.71604938271605,0)" xlink:href="#H"/><use transform="matrix(0.06172839506172839,0,0,0.06172839506172839,73.82716049382717,0)" xlink:href="#I"/></g><path d="M108-235c-52 28-62 95-58 178 3 56 21 97 58 119v15C7 49-17-153 67-223c12-10 25-19 41-27v15" id="J"/><path d="M126-119c3-38-42-31-69-25v132l23 4v8H7v-8l21-4v-226l-24-4v-8h53l-1 98c31-22 99-31 99 31v109c7 3 23-1 20 12h-71v-8l22-4v-107" id="K"/><path d="M18 4H0l83-241h17" id="L"/><path d="M13-81c0-71 46-101 114-85l-1-72-28-4v-8h57v238c8 3 24-2 21 12h-47l-2-12C80 23 13-1 13-81zm77-74c-37 1-44 33-45 74 0 38 9 66 45 66 14 0 27-3 36-7v-130c-10-1-24-3-36-3" id="M"/><path d="M12-250C113-222 137-19 52 49 40 59 28 69 12 77V62C56 37 70-16 70-87c0-70-13-123-58-148v-15" id="N"/><g id="b"><use transform="matrix(0.06172839506172839,0,0,0.06172839506172839,0,0)" xlink:href="#J"/><use transform="matrix(0.06172839506172839,0,0,0.06172839506172839,7.345679012345679,0)" xlink:href="#K"/><use transform="matrix(0.06172839506172839,0,0,0.06172839506172839,18.45679012345679,0)" xlink:href="#G"/><use transform="matrix(0.06172839506172839,0,0,0.06172839506172839,29.567901234567902,0)" xlink:href="#I"/><use transform="matrix(0.06172839506172839,0,0,0.06172839506172839,35.74074074074074,0)" xlink:href="#L"/><use transform="matrix(0.06172839506172839,0,0,0.06172839506172839,41.91358024691358,0)" xlink:href="#B"/><use transform="matrix(0.06172839506172839,0,0,0.06172839506172839,51.7283950617284,0)" xlink:href="#G"/><use transform="matrix(0.06172839506172839,0,0,0.06172839506172839,62.839506172839506,0)" xlink:href="#D"/><use transform="matrix(0.06172839506172839,0,0,0.06172839506172839,69.01234567901234,0)" xlink:href="#M"/><use transform="matrix(0.06172839506172839,0,0,0.06172839506172839,80.12345679012346,0)" xlink:href="#N"/></g><path d="M75-17c87 13 134-18 134-103 0-78-51-106-134-100v203zm171-102C246 5 139 7 10 0v-9l31-5v-208l-31-4v-10h107c82 0 129 35 129 117" id="O"/><path d="M60-80l68-73c-7-3-20 0-17-12h58c3 13-13 9-20 12l-47 48 60 93c7 3 21-1 18 12h-68c-3-12 9-9 15-12L82-83 60-60v48c7 3 21-1 18 12H10v-8l21-4v-226l-24-4v-8h53v170" id="P"/><path d="M57-145c16-10 35-24 60-25v45c-19 1-8-30-40-17l-20 6v124l29 4v8H7v-8l21-4v-141c-8-3-24 2-21-12h48" id="Q"/><path d="M10-9l31-5v-208l-31-4v-10h177v57h-11l-6-38c-28-4-63-3-95-3v92h63l6-28h11v73h-11l-6-29H75v96l105-3 10-43h12l-3 62H10v-9" id="R"/><path d="M125-118c4-37-41-34-68-26v132l23 4v8H8C5-13 21-9 28-12v-141c-7-3-23 1-20-12h47l2 13c31-23 98-29 98 31v109c7 3 23-1 20 12h-72v-8l22-4v-106" id="S"/><path d="M164-154L98 4H85L17-153c-7-3-20 0-17-12h77v8l-26 4L99-38l46-115-26-4v-8h61v8" id="T"/><g id="c"><use transform="matrix(0.08641975308641976,0,0,0.08641975308641976,0,0)" xlink:href="#O"/><use transform="matrix(0.08641975308641976,0,0,0.08641975308641976,22.38271604938272,0)" xlink:href="#G"/><use transform="matrix(0.08641975308641976,0,0,0.08641975308641976,37.93827160493828,0)" xlink:href="#B"/><use transform="matrix(0.08641975308641976,0,0,0.08641975308641976,51.67901234567902,0)" xlink:href="#P"/><use transform="matrix(0.08641975308641976,0,0,0.08641975308641976,67.23456790123458,0)" xlink:href="#E"/><use transform="matrix(0.08641975308641976,0,0,0.08641975308641976,80.97530864197533,0)" xlink:href="#Q"/><use transform="matrix(0.08641975308641976,0,0,0.08641975308641976,90.65432098765434,0)" xlink:href="#F"/><use transform="matrix(0.08641975308641976,0,0,0.08641975308641976,100.93827160493831,0)" xlink:href="#R"/><use transform="matrix(0.08641975308641976,0,0,0.08641975308641976,119.8641975308642,0)" xlink:href="#S"/><use transform="matrix(0.08641975308641976,0,0,0.08641975308641976,135.41975308641977,0)" xlink:href="#T"/></g><path d="M102-142c-14-17-68-15-54 18 24 26 83 17 83 72 0 62-72 62-120 47v-45h12c4 23 16 37 43 37 35 0 39-37 9-46-31-9-65-19-64-61 0-52 59-55 108-45v43h-11" id="U"/><path d="M76-16l18 4V0H7v-12l18-4v-218l-17-4v-12h68v234" id="V"/><path d="M73-51c-3 31 27 38 51 25v-123l-16-5v-11h66v149l17 4V0h-65l-2-14C94 9 22 18 22-44v-105l-17-5v-11h68v114" id="W"/><path d="M132-132c-21 0-37 9-50 16v100l26 4V0H10v-12l21-4v-133l-21-5v-11h69l2 34c17-18 35-41 71-40v61c-17 3-14-14-20-22" id="X"/><path d="M126-114c3-31-27-37-49-25v123l15 4V0H10v-12l16-4v-133l-16-5v-11h64l2 14c24-16 81-33 96 3 30-24 105-39 105 27v105l17 4V0h-82v-12l14-4v-98c4-33-27-37-51-24 5 35 0 82 2 122l17 4V0h-83v-12l15-4v-98" id="Y"/><path d="M109-18c15 0 31-2 42-6v14c-11 9-31 13-51 13-59 0-86-28-88-86-3-75 66-101 135-80v48h-13c-3-20-7-40-34-37-51 7-55 138 9 134" id="Z"/><path d="M78-41c-2 24 21 26 40 20C122 3 98 2 77 4 5 10 32-84 27-147H6v-11l25-7 21-38h26v38h35v18H78v106" id="aa"/><path d="M15-82c-4-69 47-101 113-83l-1-69-17-4v-12h68v234l18 4V0h-63l-4-9C77 23 5-9 15-82zm112-66c-43-16-64 17-61 65 2 33 3 67 32 67 12 0 22-3 29-8v-124" id="ab"/><g id="d"><use transform="matrix(0.08641975308641976,0,0,0.08641975308641976,0,0)" xlink:href="#U"/><use transform="matrix(0.08641975308641976,0,0,0.08641975308641976,12.098765432098766,0)" xlink:href="#V"/><use transform="matrix(0.08641975308641976,0,0,0.08641975308641976,20.74074074074074,0)" xlink:href="#W"/><use transform="matrix(0.08641975308641976,0,0,0.08641975308641976,38.0246913580247,0)" xlink:href="#X"/><use transform="matrix(0.08641975308641976,0,0,0.08641975308641976,51.76543209876544,0)" xlink:href="#Y"/><use transform="matrix(0.08641975308641976,0,0,0.08641975308641976,77.60493827160495,0)" xlink:href="#Z"/><use transform="matrix(0.08641975308641976,0,0,0.08641975308641976,91.34567901234568,0)" xlink:href="#aa"/><use transform="matrix(0.08641975308641976,0,0,0.08641975308641976,101.62962962962963,0)" xlink:href="#V"/><use transform="matrix(0.08641975308641976,0,0,0.08641975308641976,110.27160493827162,0)" xlink:href="#ab"/></g><path d="M90-170c54-1 76 32 76 87 1 56-23 87-77 87-53 0-75-32-75-87s23-86 76-87zM89-14c28-2 26-38 26-69s3-69-26-69c-27 0-24 39-24 69s-3 66 24 69" id="ac"/><path d="M186-86c2 69-46 103-114 85l1 62 25 4v12H5V65l18-4v-210l-18-5v-11h67v8c12-8 26-13 46-13 49 2 67 30 68 84zm-83 71c28 0 31-33 31-69 0-34-2-66-30-66-12 0-23 3-31 7v124c9 2 20 4 30 4" id="ad"/><path d="M12-83c0-55 22-85 75-86 52-1 66 33 63 88H64c-1 37 6 64 44 63 14 0 28-4 39-6 3 28-28 25-55 27-57 4-80-31-80-86zm90-17c2-26 0-63-27-48-10 9-11 28-11 48h38" id="ae"/><path d="M120-19l41 4V0H29v-15l41-4v-178l-41 13v-15l66-39h25v219" id="af"/><g id="e"><use transform="matrix(0.08641975308641976,0,0,0.08641975308641976,0,0)" xlink:href="#Z"/><use transform="matrix(0.08641975308641976,0,0,0.08641975308641976,13.740740740740742,0)" xlink:href="#ac"/><use transform="matrix(0.08641975308641976,0,0,0.08641975308641976,29.296296296296298,0)" xlink:href="#Y"/><use transform="matrix(0.08641975308641976,0,0,0.08641975308641976,55.13580246913581,0)" xlink:href="#ad"/><use transform="matrix(0.08641975308641976,0,0,0.08641975308641976,72.41975308641976,0)" xlink:href="#W"/><use transform="matrix(0.08641975308641976,0,0,0.08641975308641976,89.70370370370371,0)" xlink:href="#aa"/><use transform="matrix(0.08641975308641976,0,0,0.08641975308641976,99.98765432098766,0)" xlink:href="#ae"/><use transform="matrix(0.08641975308641976,0,0,0.08641975308641976,113.7283950617284,0)" xlink:href="#af"/></g><path d="M23-231c66-19 162-2 134 80C139-97 87-78 49-40h116V0H15v-33c34-46 90-67 94-145 2-38-37-54-63-33l-8 34H23v-54" id="ag"/><g id="f"><use transform="matrix(0.08641975308641976,0,0,0.08641975308641976,0,0)" xlink:href="#Z"/><use transform="matrix(0.08641975308641976,0,0,0.08641975308641976,13.740740740740742,0)" xlink:href="#ac"/><use transform="matrix(0.08641975308641976,0,0,0.08641975308641976,29.296296296296298,0)" xlink:href="#Y"/><use transform="matrix(0.08641975308641976,0,0,0.08641975308641976,55.13580246913581,0)" xlink:href="#ad"/><use transform="matrix(0.08641975308641976,0,0,0.08641975308641976,72.41975308641976,0)" xlink:href="#W"/><use transform="matrix(0.08641975308641976,0,0,0.08641975308641976,89.70370370370371,0)" xlink:href="#aa"/><use transform="matrix(0.08641975308641976,0,0,0.08641975308641976,99.98765432098766,0)" xlink:href="#ae"/><use transform="matrix(0.08641975308641976,0,0,0.08641975308641976,113.7283950617284,0)" xlink:href="#ag"/></g><path d="M72-18c49 15 64-22 62-69-1-34-4-62-34-63-10-1-23 2-28 6v126zm33 22C77 4 48-3 21-8v-226l-16-4v-12h67c-1 31 2 66-2 94 11-8 28-14 47-14 51 0 70 31 69 83-1 55-26 91-81 91" id="ah"/><g id="g"><use transform="matrix(0.08641975308641976,0,0,0.08641975308641976,0,0)" xlink:href="#U"/><use transform="matrix(0.08641975308641976,0,0,0.08641975308641976,12.098765432098766,0)" xlink:href="#V"/><use transform="matrix(0.08641975308641976,0,0,0.08641975308641976,20.74074074074074,0)" xlink:href="#W"/><use transform="matrix(0.08641975308641976,0,0,0.08641975308641976,38.0246913580247,0)" xlink:href="#X"/><use transform="matrix(0.08641975308641976,0,0,0.08641975308641976,51.76543209876544,0)" xlink:href="#Y"/><use transform="matrix(0.08641975308641976,0,0,0.08641975308641976,77.60493827160495,0)" xlink:href="#ab"/><use transform="matrix(0.08641975308641976,0,0,0.08641975308641976,94.8888888888889,0)" xlink:href="#ah"/><use transform="matrix(0.08641975308641976,0,0,0.08641975308641976,112.17283950617285,0)" xlink:href="#ab"/></g><path d="M108-123c37 3 59 22 60 59C169 8 81 11 16-4l-2-57h16c4 25 8 49 41 47 31-1 44-21 45-52 2-37-24-47-61-46v-22c33 1 52-9 50-44 6-38-35-53-61-33l-7 34H21v-54c52-13 140-14 136 51-2 33-19 52-49 57" id="ai"/><g id="h"><use transform="matrix(0.08641975308641976,0,0,0.08641975308641976,0,0)" xlink:href="#Z"/><use transform="matrix(0.08641975308641976,0,0,0.08641975308641976,13.740740740740742,0)" xlink:href="#ac"/><use transform="matrix(0.08641975308641976,0,0,0.08641975308641976,29.296296296296298,0)" xlink:href="#Y"/><use transform="matrix(0.08641975308641976,0,0,0.08641975308641976,55.13580246913581,0)" xlink:href="#ad"/><use transform="matrix(0.08641975308641976,0,0,0.08641975308641976,72.41975308641976,0)" xlink:href="#W"/><use transform="matrix(0.08641975308641976,0,0,0.08641975308641976,89.70370370370371,0)" xlink:href="#aa"/><use transform="matrix(0.08641975308641976,0,0,0.08641975308641976,99.98765432098766,0)" xlink:href="#ae"/><use transform="matrix(0.08641975308641976,0,0,0.08641975308641976,113.7283950617284,0)" xlink:href="#ai"/></g><path d="M199-173c-1 36-21 56-49 65l64 94 26 5v9h-57l-66-103H75v89l35 5v9H13v-9l28-5v-208l-31-4v-10c80 4 190-20 189 63zM75-119c50 2 89-1 89-51 0-49-39-52-89-50v101" id="aj"/><path d="M178-68c0 79-95 82-154 59v-54h12c1 35 22 52 60 52 50 0 69-58 33-82-39-24-105-21-105-85 0-67 86-66 142-53v49h-12l-6-29c-31-27-121-7-89 42 28 43 119 24 119 101" id="ak"/><path d="M55 0v-9l38-5v-207c-22 1-53 0-70 4l-5 37H7v-56h207v56h-12l-5-37-70-3v206l37 5v9H55" id="al"/><path d="M81-9v9H4v-9l26-5 81-224h33l83 224 30 5v9h-99v-9l31-5-23-68H73L49-14zm38-203L78-98h82" id="am"/><path d="M75-108c48 3 76-12 76-58s-28-57-76-54v112zm111-58c-1 60-46 78-111 74v78l37 5v9H13v-9l28-5v-208l-31-4v-10c81 1 178-14 176 70" id="an"/><path d="M77-14l30 5v9H13v-9l30-5v-208l-30-4v-10h94v10l-30 4v208" id="ao"/><g id="i"><use transform="matrix(0.08641975308641976,0,0,0.08641975308641976,0,0)" xlink:href="#aj"/><use transform="matrix(0.08641975308641976,0,0,0.08641975308641976,20.740740740740744,0)" xlink:href="#R"/><use transform="matrix(0.08641975308641976,0,0,0.08641975308641976,39.66666666666667,0)" xlink:href="#ak"/><use transform="matrix(0.08641975308641976,0,0,0.08641975308641976,56.95061728395062,0)" xlink:href="#al"/><use transform="matrix(0.08641975308641976,0,0,0.08641975308641976,73.0246913580247,0)" xlink:href="#F"/><use transform="matrix(0.08641975308641976,0,0,0.08641975308641976,83.30864197530865,0)" xlink:href="#am"/><use transform="matrix(0.08641975308641976,0,0,0.08641975308641976,105.69135802469137,0)" xlink:href="#an"/><use transform="matrix(0.08641975308641976,0,0,0.08641975308641976,122.97530864197532,0)" xlink:href="#ao"/></g><path d="M52-115c0 93 80 130 150 87l7-35h11l-1 55c-23 7-52 12-83 12C60 4 19-37 15-115c-5-113 97-141 201-114l1 51h-12l-5-30c-15-9-39-16-62-16-66 0-86 41-86 109" id="ap"/><path d="M134-16c44-1 70-21 70-64v-142l-32-4v-10h80v10l-30 4v141c0 57-33 84-91 85-58 0-93-26-93-82v-144l-30-4v-10h94v10l-30 4c7 82-31 209 62 206" id="aq"/><g id="j"><use transform="matrix(0.06172839506172839,0,0,0.06172839506172839,0,0)" xlink:href="#ap"/><use transform="matrix(0.06172839506172839,0,0,0.06172839506172839,14.814814814814813,0)" xlink:href="#aq"/><use transform="matrix(0.06172839506172839,0,0,0.06172839506172839,30.80246913580247,0)" xlink:href="#O"/><use transform="matrix(0.06172839506172839,0,0,0.06172839506172839,46.79012345679012,0)" xlink:href="#am"/></g><path d="M48-126c45-28 121-18 121 53 0 50-25 77-72 77-63 0-80-54-82-120-3-88 52-142 140-116v40h-12c2-42-66-39-79-8-8 20-16 43-16 74zm0 11c2 50 2 105 49 105 33 0 37-26 40-60 5-60-49-61-89-45" id="ar"/><path d="M90-239c42 0 69 19 69 61 0 28-14 44-35 53 25 8 42 28 42 61 0 47-28 68-77 68-48 0-75-21-75-68-1-33 18-51 41-61-19-9-34-25-34-53 0-42 26-61 69-61zM89-10c34 0 46-20 46-54 0-32-11-53-46-53-34 0-44 20-44 53-1 34 11 54 44 54zm0-123c28 0 38-16 38-45s-9-47-38-47c-28-1-36 18-36 47s8 45 36 45" id="as"/><path d="M110-14l48 5v9H32v-9l48-5v-192l-48 17v-10l69-39h9v224" id="at"/><path d="M35-180H24v-56h146v14L65 0H42l103-209H41" id="au"/><g id="k"><use transform="matrix(0.07407407407407408,0,0,0.07407407407407408,0,0)" xlink:href="#ar"/><use transform="matrix(0.07407407407407408,0,0,0.07407407407407408,13.333333333333336,0)" xlink:href="#as"/><use transform="matrix(0.07407407407407408,0,0,0.07407407407407408,26.66666666666667,0)" xlink:href="#at"/><use transform="matrix(0.07407407407407408,0,0,0.07407407407407408,40.00000000000001,0)" xlink:href="#au"/></g><g id="l"><use transform="matrix(0.07407407407407408,0,0,0.07407407407407408,0,0)" xlink:href="#ar"/><use transform="matrix(0.07407407407407408,0,0,0.07407407407407408,13.333333333333336,0)" xlink:href="#as"/><use transform="matrix(0.07407407407407408,0,0,0.07407407407407408,26.66666666666667,0)" xlink:href="#at"/><use transform="matrix(0.07407407407407408,0,0,0.07407407407407408,40.00000000000001,0)" xlink:href="#as"/></g><path d="M24-231c66-21 156 2 128 81C132-92 78-66 39-27h121V0H16v-26l59-54c26-25 47-47 47-97 0-48-47-57-81-37l-6 29H24v-46" id="av"/><path d="M90-239c59 0 76 52 76 120S152 4 89 4C31 4 14-51 14-119c0-67 17-120 76-120zM89-10c45-6 45-58 45-109 0-50 0-101-45-106-45 4-43 57-43 106 0 50-2 104 43 109" id="aw"/><g id="m"><use transform="matrix(0.07407407407407408,0,0,0.07407407407407408,0,0)" xlink:href="#ar"/><use transform="matrix(0.07407407407407408,0,0,0.07407407407407408,13.333333333333336,0)" xlink:href="#as"/><use transform="matrix(0.07407407407407408,0,0,0.07407407407407408,26.66666666666667,0)" xlink:href="#av"/><use transform="matrix(0.07407407407407408,0,0,0.07407407407407408,40.00000000000001,0)" xlink:href="#aw"/></g><path d="M166-85c3 67-44 102-111 85l1 64 29 4v9H6v-9l21-4v-217c-7-3-22 1-19-12h46l1 9c11-8 26-14 45-14 47 2 64 36 66 85zM56-13c53 14 83-14 78-72 7-53-33-79-78-60v132" id="ax"/><path d="M47-200c-23 0-25-39 0-38 13 0 18 7 20 19-1 11-8 19-20 19zM65-12l28 4v8H8v-8l28-4v-141l-24-4v-8h53v153" id="ay"/><g id="n"><use transform="matrix(0.06172839506172839,0,0,0.06172839506172839,0,0)" xlink:href="#O"/><use transform="matrix(0.06172839506172839,0,0,0.06172839506172839,15.987654320987653,0)" xlink:href="#aq"/><use transform="matrix(0.06172839506172839,0,0,0.06172839506172839,31.975308641975307,0)" xlink:href="#aq"/><use transform="matrix(0.06172839506172839,0,0,0.06172839506172839,47.96296296296296,0)" xlink:href="#ao"/><use transform="matrix(0.06172839506172839,0,0,0.06172839506172839,55.30864197530864,0)" xlink:href="#F"/><use transform="matrix(0.06172839506172839,0,0,0.06172839506172839,62.654320987654316,0)" xlink:href="#am"/><use transform="matrix(0.06172839506172839,0,0,0.06172839506172839,78.64197530864197,0)" xlink:href="#ax"/><use transform="matrix(0.06172839506172839,0,0,0.06172839506172839,89.75308641975309,0)" xlink:href="#ax"/><use transform="matrix(0.06172839506172839,0,0,0.06172839506172839,100.8641975308642,0)" xlink:href="#D"/><use transform="matrix(0.06172839506172839,0,0,0.06172839506172839,107.03703703703704,0)" xlink:href="#ay"/><use transform="matrix(0.06172839506172839,0,0,0.06172839506172839,113.20987654320987,0)" xlink:href="#B"/><use transform="matrix(0.06172839506172839,0,0,0.06172839506172839,123.02469135802468,0)" xlink:href="#C"/><use transform="matrix(0.06172839506172839,0,0,0.06172839506172839,132.8395061728395,0)" xlink:href="#I"/><use transform="matrix(0.06172839506172839,0,0,0.06172839506172839,139.01234567901233,0)" xlink:href="#ay"/><use transform="matrix(0.06172839506172839,0,0,0.06172839506172839,145.18518518518516,0)" xlink:href="#G"/><use transform="matrix(0.06172839506172839,0,0,0.06172839506172839,156.29629629629628,0)" xlink:href="#S"/></g><path d="M133-108C87-80 6-93 12-164c4-49 26-74 76-74 64 1 77 52 77 120C165-26 111 22 21-2v-41h11C28-1 99-4 114-33c10-20 17-43 19-75zm0-12c-3-48 0-104-45-104-34 0-44 25-44 61 0 32 10 52 43 52 17 0 33-4 46-9" id="az"/><g id="o"><use transform="matrix(0.06172839506172839,0,0,0.06172839506172839,0,0)" xlink:href="#ar"/><use transform="matrix(0.06172839506172839,0,0,0.06172839506172839,11.11111111111111,0)" xlink:href="#as"/><use transform="matrix(0.06172839506172839,0,0,0.06172839506172839,22.22222222222222,0)" xlink:href="#at"/><use transform="matrix(0.06172839506172839,0,0,0.06172839506172839,33.33333333333333,0)" xlink:href="#az"/></g><g id="p"><use transform="matrix(0.07407407407407408,0,0,0.07407407407407408,0,0)" xlink:href="#ar"/><use transform="matrix(0.07407407407407408,0,0,0.07407407407407408,13.333333333333336,0)" xlink:href="#as"/><use transform="matrix(0.07407407407407408,0,0,0.07407407407407408,26.66666666666667,0)" xlink:href="#at"/><use transform="matrix(0.07407407407407408,0,0,0.07407407407407408,40.00000000000001,0)" xlink:href="#az"/></g><g id="q"><use transform="matrix(0.08641975308641976,0,0,0.08641975308641976,0,0)" xlink:href="#U"/><use transform="matrix(0.08641975308641976,0,0,0.08641975308641976,12.098765432098766,0)" xlink:href="#V"/><use transform="matrix(0.08641975308641976,0,0,0.08641975308641976,20.74074074074074,0)" xlink:href="#W"/><use transform="matrix(0.08641975308641976,0,0,0.08641975308641976,38.0246913580247,0)" xlink:href="#X"/><use transform="matrix(0.08641975308641976,0,0,0.08641975308641976,51.76543209876544,0)" xlink:href="#Y"/><use transform="matrix(0.08641975308641976,0,0,0.08641975308641976,77.60493827160495,0)" xlink:href="#X"/><use transform="matrix(0.08641975308641976,0,0,0.08641975308641976,90.74074074074078,0)" xlink:href="#ae"/><use transform="matrix(0.08641975308641976,0,0,0.08641975308641976,104.48148148148151,0)" xlink:href="#U"/><use transform="matrix(0.08641975308641976,0,0,0.08641975308641976,116.58024691358028,0)" xlink:href="#aa"/><use transform="matrix(0.08641975308641976,0,0,0.08641975308641976,126.86419753086423,0)" xlink:href="#ab"/></g><g id="r"><use transform="matrix(0.06172839506172839,0,0,0.06172839506172839,0,0)" xlink:href="#ar"/><use transform="matrix(0.06172839506172839,0,0,0.06172839506172839,11.11111111111111,0)" xlink:href="#as"/><use transform="matrix(0.06172839506172839,0,0,0.06172839506172839,22.22222222222222,0)" xlink:href="#av"/><use transform="matrix(0.06172839506172839,0,0,0.06172839506172839,33.33333333333333,0)" xlink:href="#aw"/></g><path d="M106-76c4 61-43 93-98 74v-43h11c2 18 5 33 28 33 16 0 25-11 25-33v-177l-30-4v-10h91v10l-27 4v146" id="aA"/><path d="M319-222L242 5h-10l-61-162L108 5h-9L21-222l-21-4v-10h90v10l-34 4 56 166 63-163h8l61 163 54-166-37-4v-10h78v10" id="aB"/><g id="s"><use transform="matrix(0.06172839506172839,0,0,0.06172839506172839,0,0)" xlink:href="#aA"/><use transform="matrix(0.06172839506172839,0,0,0.06172839506172839,8.641975308641975,0)" xlink:href="#aB"/><use transform="matrix(0.06172839506172839,0,0,0.06172839506172839,29.5679012345679,0)" xlink:href="#al"/><use transform="matrix(0.06172839506172839,0,0,0.06172839506172839,41.04938271604938,0)" xlink:href="#F"/><use transform="matrix(0.06172839506172839,0,0,0.06172839506172839,48.395061728395056,0)" xlink:href="#al"/><use transform="matrix(0.06172839506172839,0,0,0.06172839506172839,60.37037037037037,0)" xlink:href="#G"/><use transform="matrix(0.06172839506172839,0,0,0.06172839506172839,71.48148148148148,0)" xlink:href="#P"/><use transform="matrix(0.06172839506172839,0,0,0.06172839506172839,82.5925925925926,0)" xlink:href="#E"/><use transform="matrix(0.06172839506172839,0,0,0.06172839506172839,92.4074074074074,0)" xlink:href="#S"/></g><path d="M9 41c2-18 18-26 32-33C29 1 16-9 16-28l29-33c-21-9-31-25-31-51-2-56 61-65 111-53l39-20c13 12-9 24-14 36 35 54-17 114-90 92-17 34 27 28 56 28 36-1 61 12 60 46-2 46-39 62-91 62-38 0-71-6-76-38zm35-3c6 35 97 29 94-9-2-28-50-14-78-17-8 7-15 14-16 26zm20-150c0 22 4 40 23 40 20 0 24-17 24-40 0-24-4-40-24-40-19 0-23 17-23 40" id="aC"/><path d="M31-163c51-5 127-20 127 40v107l17 4V0h-61l-4-13C82 13 12 12 12-46c0-51 46-52 95-53 9-45-22-69-57-44l-7 20H31v-40zM62-47c0 30 26 34 45 23v-59c-28 0-45 6-45 36" id="aD"/><path d="M107-230c-31-13-29 30-29 65h34v18H78v131l27 4V0H10v-12l18-4v-131H3v-12l25-7c-8-66 31-98 95-84v39h-11" id="aE"/><path d="M127-114c3-31-26-38-50-25v123l15 4V0H10v-12l16-4v-133l-16-5v-11h64l2 14c31-23 102-32 102 30v105l17 4V0h-82v-12l14-4v-98" id="aF"/><g id="t"><use transform="matrix(0.08641975308641976,0,0,0.08641975308641976,0,0)" xlink:href="#aC"/><use transform="matrix(0.08641975308641976,0,0,0.08641975308641976,15.555555555555557,0)" xlink:href="#X"/><use transform="matrix(0.08641975308641976,0,0,0.08641975308641976,29.296296296296298,0)" xlink:href="#aD"/><use transform="matrix(0.08641975308641976,0,0,0.08641975308641976,44.851851851851855,0)" xlink:href="#aE"/><use transform="matrix(0.08641975308641976,0,0,0.08641975308641976,55.13580246913581,0)" xlink:href="#aD"/><use transform="matrix(0.08641975308641976,0,0,0.08641975308641976,70.69135802469137,0)" xlink:href="#aF"/><use transform="matrix(0.08641975308641976,0,0,0.08641975308641976,87.97530864197532,0)" xlink:href="#aD"/></g><path d="M77-16l18 4V0H8v-12l18-4v-133l-17-5v-11h68v149zM51-196c-16 0-27-10-27-27s10-27 27-27 27 11 27 27c0 17-10 27-27 27" id="aG"/><path d="M127-114c3-31-26-38-50-25v123l15 4V0H10v-12l16-4v-218l-17-4v-12h68l-1 99c31-23 102-32 102 30v105l17 4V0h-82v-12l14-4v-98" id="aH"/><g id="u"><use transform="matrix(0.08641975308641976,0,0,0.08641975308641976,0,0)" xlink:href="#ae"/><use transform="matrix(0.08641975308641976,0,0,0.08641975308641976,13.740740740740742,0)" xlink:href="#V"/><use transform="matrix(0.08641975308641976,0,0,0.08641975308641976,22.38271604938272,0)" xlink:href="#aD"/><use transform="matrix(0.08641975308641976,0,0,0.08641975308641976,37.93827160493828,0)" xlink:href="#U"/><use transform="matrix(0.08641975308641976,0,0,0.08641975308641976,50.037037037037045,0)" xlink:href="#aa"/><use transform="matrix(0.08641975308641976,0,0,0.08641975308641976,60.320987654320994,0)" xlink:href="#aG"/><use transform="matrix(0.08641975308641976,0,0,0.08641975308641976,68.96296296296298,0)" xlink:href="#Z"/><use transform="matrix(0.08641975308641976,0,0,0.08641975308641976,82.70370370370372,0)" xlink:href="#U"/><use transform="matrix(0.08641975308641976,0,0,0.08641975308641976,94.80246913580248,0)" xlink:href="#ae"/><use transform="matrix(0.08641975308641976,0,0,0.08641975308641976,108.54320987654322,0)" xlink:href="#aD"/><use transform="matrix(0.08641975308641976,0,0,0.08641975308641976,124.09876543209877,0)" xlink:href="#X"/><use transform="matrix(0.08641975308641976,0,0,0.08641975308641976,137.23456790123458,0)" xlink:href="#Z"/><use transform="matrix(0.08641975308641976,0,0,0.08641975308641976,150.97530864197532,0)" xlink:href="#aH"/></g><g id="v"><use transform="matrix(0.07407407407407408,0,0,0.07407407407407408,0,0)" xlink:href="#az"/><use transform="matrix(0.07407407407407408,0,0,0.07407407407407408,13.333333333333336,0)" xlink:href="#av"/><use transform="matrix(0.07407407407407408,0,0,0.07407407407407408,26.66666666666667,0)" xlink:href="#aw"/><use transform="matrix(0.07407407407407408,0,0,0.07407407407407408,40.00000000000001,0)" xlink:href="#aw"/></g><g id="w"><use transform="matrix(0.06172839506172839,0,0,0.06172839506172839,0,0)" xlink:href="#aA"/><use transform="matrix(0.06172839506172839,0,0,0.06172839506172839,8.641975308641975,0)" xlink:href="#aB"/><use transform="matrix(0.06172839506172839,0,0,0.06172839506172839,29.5679012345679,0)" xlink:href="#al"/></g><path d="M152 0h-7L59-203v189l32 5v9H10v-9l31-5v-208l-31-4v-10h72l76 180 84-180h68v10l-31 4v208l31 5v9h-96v-9l32-5v-189" id="aI"/><path d="M203-222l-32-4v-10h81v10l-31 4V0h-17L59-212v198l32 5v9H10v-9l31-5v-208l-31-4v-10h72L203-61v-161" id="aJ"/><path d="M52-115c0 90 69 126 140 93v-67l-30-5v-9h87v9l-23 5v77c-27 8-56 16-90 16C59 2 15-37 15-115c-1-82 41-123 122-123 31 0 59 4 83 10v51h-12l-5-29c-15-12-38-18-65-18-66-1-86 42-86 109" id="aK"/><g id="x"><use transform="matrix(0.06172839506172839,0,0,0.06172839506172839,0,0)" xlink:href="#aI"/><use transform="matrix(0.06172839506172839,0,0,0.06172839506172839,19.753086419753085,0)" xlink:href="#aq"/><use transform="matrix(0.06172839506172839,0,0,0.06172839506172839,35.74074074074074,0)" xlink:href="#aJ"/><use transform="matrix(0.06172839506172839,0,0,0.06172839506172839,51.72839506172839,0)" xlink:href="#aK"/><use transform="matrix(0.06172839506172839,0,0,0.06172839506172839,67.71604938271605,0)" xlink:href="#R"/></g><g id="y"><use transform="matrix(0.08641975308641976,0,0,0.08641975308641976,0,0)" xlink:href="#aA"/><use transform="matrix(0.08641975308641976,0,0,0.08641975308641976,12.098765432098766,0)" xlink:href="#C"/><use transform="matrix(0.08641975308641976,0,0,0.08641975308641976,25.839506172839503,0)" xlink:href="#T"/><use transform="matrix(0.08641975308641976,0,0,0.08641975308641976,41.39506172839506,0)" xlink:href="#C"/></g><path d="M161-154L85 37C75 66 49 86 8 75V39c18-2 6 24 29 21 30-4 38-32 47-58L21-153c-7-3-20 0-17-12h77v8l-26 4 45 116 43-116-26-4v-8h62v8" id="aL"/><g id="z"><use transform="matrix(0.08641975308641976,0,0,0.08641975308641976,0,0)" xlink:href="#an"/><use transform="matrix(0.08641975308641976,0,0,0.08641975308641976,17.283950617283953,0)" xlink:href="#aL"/><use transform="matrix(0.08641975308641976,0,0,0.08641975308641976,32.839506172839506,0)" xlink:href="#I"/><use transform="matrix(0.08641975308641976,0,0,0.08641975308641976,41.48148148148148,0)" xlink:href="#K"/><use transform="matrix(0.08641975308641976,0,0,0.08641975308641976,57.03703703703703,0)" xlink:href="#G"/><use transform="matrix(0.08641975308641976,0,0,0.08641975308641976,72.5925925925926,0)" xlink:href="#S"/></g></defs></g></svg>